ISO-10303-21;
HEADER;
FILE_DESCRIPTION(('CATIA V5 STEP Exchange','CAx-IF Rec.Pracs.--- Model Styling and Organization---1.5--- 2016-08-15','CAx-IF Rec.Pracs.---Supplemental Geometry---1.0---2011-11-01','CAx-IF Rec.Pracs.--- Composite Materials ---3.4---2017-06-13','CAx-IF Rec.Pracs.---Tessellated 3D Geometry---1.0---2015-12-17'),'2;1');

FILE_NAME('V:\\01 Prismatic\\12 can\\can.stp','2026-08-25T00:27:34+00:00',('none'),('none'),'CATIA Version 5-6 Release 2022 SP3 HF12','CATIA V5 STEP AP242 v2','none');

FILE_SCHEMA(('AP242_MANAGED_MODEL_BASED_3D_ENGINEERING_MIM_LF  {1 0 10303 442 1 1 4}'));

ENDSEC;
DATA;
#5=PRODUCT('prd-87429961-00035677','[MNARV]Riveting Cylinderical Can','[MNARV]Riveting Cylinderical Can',(#2)) ;
#2=PRODUCT_CONTEXT(' ',#1,'mechanical') ;
#1=APPLICATION_CONTEXT('managed model based 3d engineering') ;
#10=PRODUCT_DEFINITION('',' ',#6,#3) ;
#3=PRODUCT_DEFINITION_CONTEXT('part definition',#1,' ') ;
#11=PRODUCT_DEFINITION_SHAPE(' ',' ',#10) ;
#342=MECHANICAL_DESIGN_GEOMETRIC_PRESENTATION_REPRESENTATION(' ',(#29),#16) ;
#7=PRODUCT_CATEGORY('part','specification') ;
#19=SHAPE_REPRESENTATION(' ',(#18),#16) ;
#17=CARTESIAN_POINT(' ',(0.,0.,0.)) ;
#31=CARTESIAN_POINT('Axis2P3D Location',(0.,0.,47.5)) ;
#36=CARTESIAN_POINT('Line Origine',(3.12085260124E-15,4.43,0.4)) ;
#40=CARTESIAN_POINT('Vertex',(3.12085260124E-15,4.43,0.)) ;
#42=CARTESIAN_POINT('Vertex',(3.12085260124E-15,4.43,0.8)) ;
#45=CARTESIAN_POINT('Axis2P3D Location',(0.,0.,0.8)) ;
#49=CARTESIAN_POINT('Vertex',(2.71259266011E-16,-4.43,0.8)) ;
#52=CARTESIAN_POINT('Line Origine',(2.71259266011E-16,-4.43,0.4)) ;
#56=CARTESIAN_POINT('Vertex',(2.71259266011E-16,-4.43,0.)) ;
#59=CARTESIAN_POINT('Axis2P3D Location',(0.,0.,0.)) ;
#71=CARTESIAN_POINT('Axis2P3D Location',(0.,0.,0.8)) ;
#76=CARTESIAN_POINT('Axis2P3D Location',(0.,0.,0.)) ;
#88=CARTESIAN_POINT('Axis2P3D Location',(0.,0.,47.5)) ;
#93=CARTESIAN_POINT('Axis2P3D Location',(0.,0.,1.6)) ;
#97=CARTESIAN_POINT('Vertex',(-4.15155264911E-15,22.6,1.6)) ;
#99=CARTESIAN_POINT('Vertex',(1.6438475097E-14,-22.6,1.6)) ;
#102=CARTESIAN_POINT('Line Origine',(-4.15155264911E-15,22.6,47.9)) ;
#106=CARTESIAN_POINT('Vertex',(-4.15155264911E-15,22.6,95.)) ;
#109=CARTESIAN_POINT('Axis2P3D Location',(0.,0.,95.)) ;
#113=CARTESIAN_POINT('Vertex',(1.38385088304E-15,-22.6,95.)) ;
#116=CARTESIAN_POINT('Line Origine',(1.38385088304E-15,-22.6,47.9)) ;
#128=CARTESIAN_POINT('Axis2P3D Location',(1.06581410364E-14,5.3290705182E-15,1.6)) ;
#133=CARTESIAN_POINT('Axis2P3D Location',(2.18713935851E-15,-21.8,1.6)) ;
#137=CARTESIAN_POINT('Vertex',(4.96285718496E-15,-21.8,0.8)) ;
#140=CARTESIAN_POINT('Axis2P3D Location',(1.06581410364E-14,5.3290705182E-15,0.8)) ;
#144=CARTESIAN_POINT('Vertex',(-5.21717524669E-15,21.8,0.8)) ;
#147=CARTESIAN_POINT('Axis2P3D Location',(-1.83852932878E-14,21.8,1.6)) ;
#159=CARTESIAN_POINT('Axis2P3D Location',(0.,0.,1.6)) ;
#164=CARTESIAN_POINT('Axis2P3D Location',(0.,0.,95.)) ;
#176=CARTESIAN_POINT('Axis2P3D Location',(-1.95399252334E-14,1.42108547152E-14,1.6)) ;
#181=CARTESIAN_POINT('Axis2P3D Location',(-1.95399252334E-14,1.42108547152E-14,0.8)) ;
#193=CARTESIAN_POINT('Axis2P3D Location',(0.,0.,47.5)) ;
#198=CARTESIAN_POINT('Line Origine',(1.40834381902E-15,-23.,47.5)) ;
#202=CARTESIAN_POINT('Vertex',(1.40834381902E-15,-23.,95.)) ;
#204=CARTESIAN_POINT('Vertex',(2.74698227482E-14,-23.,1.3)) ;
#207=CARTESIAN_POINT('Axis2P3D Location',(0.,0.,95.)) ;
#211=CARTESIAN_POINT('Vertex',(-4.22503145706E-15,23.,95.)) ;
#214=CARTESIAN_POINT('Line Origine',(-4.22503145706E-15,23.,47.5)) ;
#218=CARTESIAN_POINT('Vertex',(-4.22503145706E-15,23.,1.3)) ;
#221=CARTESIAN_POINT('Axis2P3D Location',(0.,0.,1.3)) ;
#233=CARTESIAN_POINT('Axis2P3D Location',(5.3290705182E-15,5.3290705182E-15,1.3)) ;
#238=CARTESIAN_POINT('Axis2P3D Location',(1.71529457305E-15,-21.7,1.3)) ;
#242=CARTESIAN_POINT('Vertex',(5.36308228203E-15,-21.7,0.)) ;
#245=CARTESIAN_POINT('Axis2P3D Location',(-5.51225731726E-15,21.7,1.3)) ;
#249=CARTESIAN_POINT('Vertex',(-5.26685193457E-15,21.7,0.)) ;
#252=CARTESIAN_POINT('Axis2P3D Location',(5.3290705182E-15,5.3290705182E-15,0.)) ;
#264=CARTESIAN_POINT('Axis2P3D Location',(0.,0.,95.)) ;
#269=CARTESIAN_POINT('Axis2P3D Location',(0.,0.,1.3)) ;
#281=CARTESIAN_POINT('Axis2P3D Location',(-3.5527136788E-15,1.42108547152E-14,1.3)) ;
#286=CARTESIAN_POINT('Axis2P3D Location',(-3.5527136788E-15,1.42108547152E-14,0.)) ;
#298=CARTESIAN_POINT('Axis2P3D Location',(0.,-22.6,0.8)) ;
#312=CARTESIAN_POINT('Axis2P3D Location',(0.,-23.,95.)) ;
#326=CARTESIAN_POINT('Axis2P3D Location',(0.,-4.43,0.)) ;
#8=PRODUCT_RELATED_PRODUCT_CATEGORY('part',$,(#5)) ;
#15=UNCERTAINTY_MEASURE_WITH_UNIT(LENGTH_MEASURE(0.005),#12,'distance_accuracy_value','CONFUSED CURVE UNCERTAINTY') ;
#29=STYLED_ITEM(' ',(#28),#21) ;
#28=PRESENTATION_STYLE_ASSIGNMENT((#27)) ;
#27=SURFACE_STYLE_USAGE(.BOTH.,#26) ;
#26=SURFACE_SIDE_STYLE(' ',(#25)) ;
#25=SURFACE_STYLE_FILL_AREA(#24) ;
#24=FILL_AREA_STYLE(' ',(#23)) ;
#23=FILL_AREA_STYLE_COLOUR(' ',#22) ;
#38=VECTOR('Line Direction',#37,1.) ;
#54=VECTOR('Line Direction',#53,1.) ;
#104=VECTOR('Line Direction',#103,1.) ;
#118=VECTOR('Line Direction',#117,1.) ;
#200=VECTOR('Line Direction',#199,1.) ;
#216=VECTOR('Line Direction',#215,1.) ;
#32=DIRECTION('Axis2P3D Direction',(0.,0.,-1.)) ;
#33=DIRECTION('Axis2P3D XDirection',(6.12323399574E-17,-1.,0.)) ;
#37=DIRECTION('Vector Direction',(0.,0.,-1.)) ;
#46=DIRECTION('Axis2P3D Direction',(0.,0.,-1.)) ;
#53=DIRECTION('Vector Direction',(0.,0.,-1.)) ;
#60=DIRECTION('Axis2P3D Direction',(0.,0.,-1.)) ;
#72=DIRECTION('Axis2P3D Direction',(0.,0.,-1.)) ;
#77=DIRECTION('Axis2P3D Direction',(0.,0.,-1.)) ;
#89=DIRECTION('Axis2P3D Direction',(0.,0.,-1.)) ;
#90=DIRECTION('Axis2P3D XDirection',(6.12323399574E-17,-1.,0.)) ;
#94=DIRECTION('Axis2P3D Direction',(0.,0.,-1.)) ;
#103=DIRECTION('Vector Direction',(0.,0.,-1.)) ;
#110=DIRECTION('Axis2P3D Direction',(0.,0.,-1.)) ;
#117=DIRECTION('Vector Direction',(0.,0.,-1.)) ;
#129=DIRECTION('Axis2P3D Direction',(0.,-0.,-1.)) ;
#130=DIRECTION('Axis2P3D XDirection',(-4.71599160903E-16,-1.,0.)) ;
#134=DIRECTION('Axis2P3D Direction',(1.,-3.88578058619E-16,0.)) ;
#141=DIRECTION('Axis2P3D Direction',(0.,-0.,-1.)) ;
#148=DIRECTION('Axis2P3D Direction',(-1.,-1.33226762955E-15,0.)) ;
#160=DIRECTION('Axis2P3D Direction',(0.,0.,-1.)) ;
#165=DIRECTION('Axis2P3D Direction',(0.,0.,-1.)) ;
#177=DIRECTION('Axis2P3D Direction',(-0.,0.,-1.)) ;
#178=DIRECTION('Axis2P3D XDirection',(1.88639664361E-15,1.,0.)) ;
#182=DIRECTION('Axis2P3D Direction',(-0.,0.,-1.)) ;
#194=DIRECTION('Axis2P3D Direction',(0.,0.,-1.)) ;
#195=DIRECTION('Axis2P3D XDirection',(6.12323399574E-17,-1.,0.)) ;
#199=DIRECTION('Vector Direction',(0.,0.,-1.)) ;
#208=DIRECTION('Axis2P3D Direction',(0.,0.,-1.)) ;
#215=DIRECTION('Vector Direction',(0.,0.,-1.)) ;
#222=DIRECTION('Axis2P3D Direction',(0.,0.,-1.)) ;
#234=DIRECTION('Axis2P3D Direction',(0.,-0.,-1.)) ;
#235=DIRECTION('Axis2P3D XDirection',(-3.86164530304E-16,-1.,0.)) ;
#239=DIRECTION('Axis2P3D Direction',(1.,-1.66533453694E-16,0.)) ;
#246=DIRECTION('Axis2P3D Direction',(-1.,-4.99600361081E-16,0.)) ;
#253=DIRECTION('Axis2P3D Direction',(0.,-0.,-1.)) ;
#265=DIRECTION('Axis2P3D Direction',(0.,0.,-1.)) ;
#270=DIRECTION('Axis2P3D Direction',(0.,0.,-1.)) ;
#282=DIRECTION('Axis2P3D Direction',(-0.,0.,-1.)) ;
#283=DIRECTION('Axis2P3D XDirection',(8.4956196667E-16,1.,0.)) ;
#287=DIRECTION('Axis2P3D Direction',(-0.,0.,-1.)) ;
#299=DIRECTION('Axis2P3D Direction',(0.,0.,-1.)) ;
#300=DIRECTION('Axis2P3D XDirection',(1.,0.,0.)) ;
#313=DIRECTION('Axis2P3D Direction',(0.,0.,-1.)) ;
#314=DIRECTION('Axis2P3D XDirection',(1.,0.,0.)) ;
#327=DIRECTION('Axis2P3D Direction',(0.,0.,-1.)) ;
#328=DIRECTION('Axis2P3D XDirection',(1.,0.,0.)) ;
#341=SHAPE_REPRESENTATION_RELATIONSHIP(' ',' ',#19,#340) ;
#18=AXIS2_PLACEMENT_3D(' ',#17,$,$) ;
#34=AXIS2_PLACEMENT_3D('Cylinder Axis2P3D',#31,#32,#33) ;
#47=AXIS2_PLACEMENT_3D('Circle Axis2P3D',#45,#46,$) ;
#61=AXIS2_PLACEMENT_3D('Circle Axis2P3D',#59,#60,$) ;
#73=AXIS2_PLACEMENT_3D('Circle Axis2P3D',#71,#72,$) ;
#78=AXIS2_PLACEMENT_3D('Circle Axis2P3D',#76,#77,$) ;
#91=AXIS2_PLACEMENT_3D('Cylinder Axis2P3D',#88,#89,#90) ;
#95=AXIS2_PLACEMENT_3D('Circle Axis2P3D',#93,#94,$) ;
#111=AXIS2_PLACEMENT_3D('Circle Axis2P3D',#109,#110,$) ;
#131=AXIS2_PLACEMENT_3D('Torus Axis2P3D',#128,#129,#130) ;
#135=AXIS2_PLACEMENT_3D('Circle Axis2P3D',#133,#134,$) ;
#142=AXIS2_PLACEMENT_3D('Circle Axis2P3D',#140,#141,$) ;
#149=AXIS2_PLACEMENT_3D('Circle Axis2P3D',#147,#148,$) ;
#161=AXIS2_PLACEMENT_3D('Circle Axis2P3D',#159,#160,$) ;
#166=AXIS2_PLACEMENT_3D('Circle Axis2P3D',#164,#165,$) ;
#179=AXIS2_PLACEMENT_3D('Torus Axis2P3D',#176,#177,#178) ;
#183=AXIS2_PLACEMENT_3D('Circle Axis2P3D',#181,#182,$) ;
#196=AXIS2_PLACEMENT_3D('Cylinder Axis2P3D',#193,#194,#195) ;
#209=AXIS2_PLACEMENT_3D('Circle Axis2P3D',#207,#208,$) ;
#223=AXIS2_PLACEMENT_3D('Circle Axis2P3D',#221,#222,$) ;
#236=AXIS2_PLACEMENT_3D('Torus Axis2P3D',#233,#234,#235) ;
#240=AXIS2_PLACEMENT_3D('Circle Axis2P3D',#238,#239,$) ;
#247=AXIS2_PLACEMENT_3D('Circle Axis2P3D',#245,#246,$) ;
#254=AXIS2_PLACEMENT_3D('Circle Axis2P3D',#252,#253,$) ;
#266=AXIS2_PLACEMENT_3D('Circle Axis2P3D',#264,#265,$) ;
#271=AXIS2_PLACEMENT_3D('Circle Axis2P3D',#269,#270,$) ;
#284=AXIS2_PLACEMENT_3D('Torus Axis2P3D',#281,#282,#283) ;
#288=AXIS2_PLACEMENT_3D('Circle Axis2P3D',#286,#287,$) ;
#301=AXIS2_PLACEMENT_3D('Plane Axis2P3D',#298,#299,#300) ;
#315=AXIS2_PLACEMENT_3D('Plane Axis2P3D',#312,#313,#314) ;
#329=AXIS2_PLACEMENT_3D('Plane Axis2P3D',#326,#327,#328) ;
#39=LINE('Line',#36,#38) ;
#55=LINE('Line',#52,#54) ;
#105=LINE('Line',#102,#104) ;
#119=LINE('Line',#116,#118) ;
#201=LINE('Line',#198,#200) ;
#217=LINE('Line',#214,#216) ;
#48=CIRCLE('generated circle',#47,4.43) ;
#62=CIRCLE('generated circle',#61,4.43) ;
#74=CIRCLE('generated circle',#73,4.43) ;
#79=CIRCLE('generated circle',#78,4.43) ;
#96=CIRCLE('generated circle',#95,22.6) ;
#112=CIRCLE('generated circle',#111,22.6) ;
#136=CIRCLE('generated circle',#135,0.8) ;
#143=CIRCLE('generated circle',#142,21.8) ;
#150=CIRCLE('generated circle',#149,0.8) ;
#162=CIRCLE('generated circle',#161,22.6) ;
#167=CIRCLE('generated circle',#166,22.6) ;
#184=CIRCLE('generated circle',#183,21.8) ;
#210=CIRCLE('generated circle',#209,23.) ;
#224=CIRCLE('generated circle',#223,23.) ;
#241=CIRCLE('generated circle',#240,1.3) ;
#248=CIRCLE('generated circle',#247,1.3) ;
#255=CIRCLE('generated circle',#254,21.7) ;
#267=CIRCLE('generated circle',#266,23.) ;
#272=CIRCLE('generated circle',#271,23.) ;
#289=CIRCLE('generated circle',#288,21.7) ;
#302=PLANE('',#301) ;
#316=PLANE('',#315) ;
#330=PLANE('',#329) ;
#35=CYLINDRICAL_SURFACE('generated cylinder',#34,4.43) ;
#92=CYLINDRICAL_SURFACE('generated cylinder',#91,22.6) ;
#197=CYLINDRICAL_SURFACE('generated cylinder',#196,23.) ;
#132=TOROIDAL_SURFACE('homeo Torus',#131,21.8,0.8) ;
#180=TOROIDAL_SURFACE('homeo Torus',#179,21.8,0.8) ;
#237=TOROIDAL_SURFACE('homeo Torus',#236,21.7,1.3) ;
#285=TOROIDAL_SURFACE('homeo Torus',#284,21.7,1.3) ;
#310=FACE_BOUND('',#307,.T.) ;
#324=FACE_BOUND('',#321,.T.) ;
#338=FACE_BOUND('',#335,.T.) ;
#44=EDGE_CURVE('',#41,#43,#39,.F.) ;
#51=EDGE_CURVE('',#50,#43,#48,.T.) ;
#58=EDGE_CURVE('',#57,#50,#55,.F.) ;
#63=EDGE_CURVE('',#57,#41,#62,.T.) ;
#75=EDGE_CURVE('',#43,#50,#74,.T.) ;
#80=EDGE_CURVE('',#41,#57,#79,.T.) ;
#101=EDGE_CURVE('',#98,#100,#96,.F.) ;
#108=EDGE_CURVE('',#98,#107,#105,.F.) ;
#115=EDGE_CURVE('',#114,#107,#112,.T.) ;
#120=EDGE_CURVE('',#100,#114,#119,.F.) ;
#139=EDGE_CURVE('',#100,#138,#136,.T.) ;
#146=EDGE_CURVE('',#145,#138,#143,.F.) ;
#151=EDGE_CURVE('',#98,#145,#150,.T.) ;
#163=EDGE_CURVE('',#100,#98,#162,.F.) ;
#168=EDGE_CURVE('',#107,#114,#167,.T.) ;
#185=EDGE_CURVE('',#138,#145,#184,.F.) ;
#206=EDGE_CURVE('',#203,#205,#201,.T.) ;
#213=EDGE_CURVE('',#203,#212,#210,.T.) ;
#220=EDGE_CURVE('',#212,#219,#217,.T.) ;
#225=EDGE_CURVE('',#205,#219,#224,.T.) ;
#244=EDGE_CURVE('',#243,#205,#241,.F.) ;
#251=EDGE_CURVE('',#250,#219,#248,.F.) ;
#256=EDGE_CURVE('',#243,#250,#255,.T.) ;
#268=EDGE_CURVE('',#212,#203,#267,.T.) ;
#273=EDGE_CURVE('',#219,#205,#272,.T.) ;
#290=EDGE_CURVE('',#250,#243,#289,.T.) ;
#30=CLOSED_SHELL('Closed Shell',(#70,#87,#127,#158,#175,#192,#232,#263,#280,#297,#311,#325,#339)) ;
#65=ORIENTED_EDGE('',*,*,#44,.T.) ;
#66=ORIENTED_EDGE('',*,*,#51,.F.) ;
#67=ORIENTED_EDGE('',*,*,#58,.F.) ;
#68=ORIENTED_EDGE('',*,*,#63,.T.) ;
#82=ORIENTED_EDGE('',*,*,#58,.T.) ;
#83=ORIENTED_EDGE('',*,*,#75,.F.) ;
#84=ORIENTED_EDGE('',*,*,#44,.F.) ;
#85=ORIENTED_EDGE('',*,*,#80,.T.) ;
#122=ORIENTED_EDGE('',*,*,#101,.F.) ;
#123=ORIENTED_EDGE('',*,*,#108,.T.) ;
#124=ORIENTED_EDGE('',*,*,#115,.F.) ;
#125=ORIENTED_EDGE('',*,*,#120,.F.) ;
#153=ORIENTED_EDGE('',*,*,#101,.T.) ;
#154=ORIENTED_EDGE('',*,*,#139,.T.) ;
#155=ORIENTED_EDGE('',*,*,#146,.F.) ;
#156=ORIENTED_EDGE('',*,*,#151,.F.) ;
#170=ORIENTED_EDGE('',*,*,#163,.F.) ;
#171=ORIENTED_EDGE('',*,*,#120,.T.) ;
#172=ORIENTED_EDGE('',*,*,#168,.F.) ;
#173=ORIENTED_EDGE('',*,*,#108,.F.) ;
#187=ORIENTED_EDGE('',*,*,#163,.T.) ;
#188=ORIENTED_EDGE('',*,*,#151,.T.) ;
#189=ORIENTED_EDGE('',*,*,#185,.F.) ;
#190=ORIENTED_EDGE('',*,*,#139,.F.) ;
#227=ORIENTED_EDGE('',*,*,#206,.F.) ;
#228=ORIENTED_EDGE('',*,*,#213,.T.) ;
#229=ORIENTED_EDGE('',*,*,#220,.T.) ;
#230=ORIENTED_EDGE('',*,*,#225,.F.) ;
#258=ORIENTED_EDGE('',*,*,#244,.T.) ;
#259=ORIENTED_EDGE('',*,*,#225,.T.) ;
#260=ORIENTED_EDGE('',*,*,#251,.F.) ;
#261=ORIENTED_EDGE('',*,*,#256,.F.) ;
#275=ORIENTED_EDGE('',*,*,#220,.F.) ;
#276=ORIENTED_EDGE('',*,*,#268,.T.) ;
#277=ORIENTED_EDGE('',*,*,#206,.T.) ;
#278=ORIENTED_EDGE('',*,*,#273,.F.) ;
#292=ORIENTED_EDGE('',*,*,#251,.T.) ;
#293=ORIENTED_EDGE('',*,*,#273,.T.) ;
#294=ORIENTED_EDGE('',*,*,#244,.F.) ;
#295=ORIENTED_EDGE('',*,*,#290,.F.) ;
#304=ORIENTED_EDGE('',*,*,#146,.T.) ;
#305=ORIENTED_EDGE('',*,*,#185,.T.) ;
#308=ORIENTED_EDGE('',*,*,#75,.T.) ;
#309=ORIENTED_EDGE('',*,*,#51,.T.) ;
#318=ORIENTED_EDGE('',*,*,#213,.F.) ;
#319=ORIENTED_EDGE('',*,*,#268,.F.) ;
#322=ORIENTED_EDGE('',*,*,#168,.T.) ;
#323=ORIENTED_EDGE('',*,*,#115,.T.) ;
#332=ORIENTED_EDGE('',*,*,#290,.T.) ;
#333=ORIENTED_EDGE('',*,*,#256,.T.) ;
#336=ORIENTED_EDGE('',*,*,#63,.F.) ;
#337=ORIENTED_EDGE('',*,*,#80,.F.) ;
#64=EDGE_LOOP('',(#65,#66,#67,#68)) ;
#81=EDGE_LOOP('',(#82,#83,#84,#85)) ;
#121=EDGE_LOOP('',(#122,#123,#124,#125)) ;
#152=EDGE_LOOP('',(#153,#154,#155,#156)) ;
#169=EDGE_LOOP('',(#170,#171,#172,#173)) ;
#186=EDGE_LOOP('',(#187,#188,#189,#190)) ;
#226=EDGE_LOOP('',(#227,#228,#229,#230)) ;
#257=EDGE_LOOP('',(#258,#259,#260,#261)) ;
#274=EDGE_LOOP('',(#275,#276,#277,#278)) ;
#291=EDGE_LOOP('',(#292,#293,#294,#295)) ;
#303=EDGE_LOOP('',(#304,#305)) ;
#307=EDGE_LOOP('',(#308,#309)) ;
#317=EDGE_LOOP('',(#318,#319)) ;
#321=EDGE_LOOP('',(#322,#323)) ;
#331=EDGE_LOOP('',(#332,#333)) ;
#335=EDGE_LOOP('',(#336,#337)) ;
#21=MANIFOLD_SOLID_BREP('Can Riveting',#30) ;
#41=VERTEX_POINT('',#40) ;
#43=VERTEX_POINT('',#42) ;
#50=VERTEX_POINT('',#49) ;
#57=VERTEX_POINT('',#56) ;
#98=VERTEX_POINT('',#97) ;
#100=VERTEX_POINT('',#99) ;
#107=VERTEX_POINT('',#106) ;
#114=VERTEX_POINT('',#113) ;
#138=VERTEX_POINT('',#137) ;
#145=VERTEX_POINT('',#144) ;
#203=VERTEX_POINT('',#202) ;
#205=VERTEX_POINT('',#204) ;
#212=VERTEX_POINT('',#211) ;
#219=VERTEX_POINT('',#218) ;
#243=VERTEX_POINT('',#242) ;
#250=VERTEX_POINT('',#249) ;
#340=ADVANCED_BREP_SHAPE_REPRESENTATION('NONE',(#21),#16) ;
#70=ADVANCED_FACE('Can Riveting',(#69),#35,.F.) ;
#87=ADVANCED_FACE('Can Riveting',(#86),#35,.F.) ;
#127=ADVANCED_FACE('Can Riveting',(#126),#92,.F.) ;
#158=ADVANCED_FACE('Can Riveting',(#157),#132,.F.) ;
#175=ADVANCED_FACE('Can Riveting',(#174),#92,.F.) ;
#192=ADVANCED_FACE('Can Riveting',(#191),#180,.F.) ;
#232=ADVANCED_FACE('Can Riveting',(#231),#197,.T.) ;
#263=ADVANCED_FACE('Can Riveting',(#262),#237,.T.) ;
#280=ADVANCED_FACE('Can Riveting',(#279),#197,.T.) ;
#297=ADVANCED_FACE('Can Riveting',(#296),#285,.T.) ;
#311=ADVANCED_FACE('Can Riveting',(#306,#310),#302,.F.) ;
#325=ADVANCED_FACE('Can Riveting',(#320,#324),#316,.F.) ;
#339=ADVANCED_FACE('Can Riveting',(#334,#338),#330,.T.) ;
#4=APPLICATION_PROTOCOL_DEFINITION('international standard','ap242_managed_model_based_3d_engineering',2014,#1) ;
#22=COLOUR_RGB('Colour',0.823529411765,0.823529411765,1.) ;
#69=FACE_OUTER_BOUND('',#64,.T.) ;
#86=FACE_OUTER_BOUND('',#81,.T.) ;
#126=FACE_OUTER_BOUND('',#121,.T.) ;
#157=FACE_OUTER_BOUND('',#152,.T.) ;
#174=FACE_OUTER_BOUND('',#169,.T.) ;
#191=FACE_OUTER_BOUND('',#186,.T.) ;
#231=FACE_OUTER_BOUND('',#226,.T.) ;
#262=FACE_OUTER_BOUND('',#257,.T.) ;
#279=FACE_OUTER_BOUND('',#274,.T.) ;
#296=FACE_OUTER_BOUND('',#291,.T.) ;
#306=FACE_OUTER_BOUND('',#303,.T.) ;
#320=FACE_OUTER_BOUND('',#317,.T.) ;
#334=FACE_OUTER_BOUND('',#331,.T.) ;
#9=PRODUCT_CATEGORY_RELATIONSHIP(' ',' ',#7,#8) ;
#6=PRODUCT_DEFINITION_FORMATION_WITH_SPECIFIED_SOURCE('',' ',#5,.NOT_KNOWN.) ;
#20=SHAPE_DEFINITION_REPRESENTATION(#11,#19) ;
#12=(LENGTH_UNIT()NAMED_UNIT(*)SI_UNIT(.MILLI.,.METRE.)) ;
#13=(NAMED_UNIT(*)PLANE_ANGLE_UNIT()SI_UNIT($,.RADIAN.)) ;
#14=(NAMED_UNIT(*)SI_UNIT($,.STERADIAN.)SOLID_ANGLE_UNIT()) ;
#16=(GEOMETRIC_REPRESENTATION_CONTEXT(3)GLOBAL_UNCERTAINTY_ASSIGNED_CONTEXT((#15))GLOBAL_UNIT_ASSIGNED_CONTEXT((#12,#13,#14))REPRESENTATION_CONTEXT(' ',' ')) ;
ENDSEC;
END-ISO-10303-21;
