ISO-10303-21;
HEADER;
FILE_DESCRIPTION(('CATIA V5 STEP Exchange','CAx-IF Rec.Pracs.--- Model Styling and Organization---1.5--- 2016-08-15','CAx-IF Rec.Pracs.---Supplemental Geometry---1.0---2011-11-01','CAx-IF Rec.Pracs.--- Composite Materials ---3.4---2017-06-13','CAx-IF Rec.Pracs.---Tessellated 3D Geometry---1.0---2015-12-17'),'2;1');

FILE_NAME('V:\\01 \X2\AC01D615\X0\\\10 260119 \X2\C785C218\X0\\\02 251229 HONDA HEV Cell (External tape \X2\C218C815\X0\)\\Honda_Can.stp','2026-01-20T02:43:55+00:00',('none'),('none'),'CATIA Version 5-6 Release 2022 SP3 HF50','CATIA V5 STEP AP242 v2','none');

FILE_SCHEMA(('AP242_MANAGED_MODEL_BASED_3D_ENGINEERING_MIM_LF  {1 0 10303 442 3 1 4}'));

ENDSEC;
DATA;
#243=FACE_BOUND('',#234,.T.) ;
#21=MANIFOLD_SOLID_BREP('PartBody',#30) ;
#30=CLOSED_SHELL('Closed Shell',(#70,#104,#244,#271,#302,#364,#381,#412,#436,#460,#484,#508,#532,#556,#573,#635,#662,#686,#706,#723,#754,#771,#802,#833,#850,#881,#905,#929,#953,#977,#1001,#1025,#1042,#1073,#1104,#1121,#1138,#1155,#1186,#1203,#1243,#1260,#1277,#1293,#1310,#1322,#1334)) ;
#10=PRODUCT_DEFINITION('',' ',#6,#3) ;
#5=PRODUCT('Honda_Can','','',(#2)) ;
#2=PRODUCT_CONTEXT(' ',#1,'mechanical') ;
#1=APPLICATION_CONTEXT('managed model based 3d engineering') ;
#3=PRODUCT_DEFINITION_CONTEXT('part definition',#1,' ') ;
#19=SHAPE_REPRESENTATION(' ',(#18),#16) ;
#41=VERTEX_POINT('',#40) ;
#43=VERTEX_POINT('',#42) ;
#50=VERTEX_POINT('',#49) ;
#57=VERTEX_POINT('',#56) ;
#81=VERTEX_POINT('',#80) ;
#83=VERTEX_POINT('',#82) ;
#115=VERTEX_POINT('',#114) ;
#117=VERTEX_POINT('',#116) ;
#133=VERTEX_POINT('',#132) ;
#140=VERTEX_POINT('',#139) ;
#156=VERTEX_POINT('',#155) ;
#163=VERTEX_POINT('',#162) ;
#170=VERTEX_POINT('',#169) ;
#177=VERTEX_POINT('',#176) ;
#199=VERTEX_POINT('',#198) ;
#201=VERTEX_POINT('',#200) ;
#213=VERTEX_POINT('',#212) ;
#220=VERTEX_POINT('',#219) ;
#227=VERTEX_POINT('',#226) ;
#255=VERTEX_POINT('',#254) ;
#282=VERTEX_POINT('',#281) ;
#289=VERTEX_POINT('',#288) ;
#313=VERTEX_POINT('',#312) ;
#323=VERTEX_POINT('',#322) ;
#330=VERTEX_POINT('',#329) ;
#337=VERTEX_POINT('',#336) ;
#344=VERTEX_POINT('',#343) ;
#392=VERTEX_POINT('',#391) ;
#399=VERTEX_POINT('',#398) ;
#423=VERTEX_POINT('',#422) ;
#447=VERTEX_POINT('',#446) ;
#471=VERTEX_POINT('',#470) ;
#495=VERTEX_POINT('',#494) ;
#519=VERTEX_POINT('',#518) ;
#543=VERTEX_POINT('',#542) ;
#584=VERTEX_POINT('',#583) ;
#586=VERTEX_POINT('',#585) ;
#593=VERTEX_POINT('',#592) ;
#600=VERTEX_POINT('',#599) ;
#615=VERTEX_POINT('',#614) ;
#646=VERTEX_POINT('',#645) ;
#673=VERTEX_POINT('',#672) ;
#734=VERTEX_POINT('',#733) ;
#741=VERTEX_POINT('',#740) ;
#782=VERTEX_POINT('',#781) ;
#789=VERTEX_POINT('',#788) ;
#813=VERTEX_POINT('',#812) ;
#820=VERTEX_POINT('',#819) ;
#861=VERTEX_POINT('',#860) ;
#868=VERTEX_POINT('',#867) ;
#892=VERTEX_POINT('',#891) ;
#916=VERTEX_POINT('',#915) ;
#940=VERTEX_POINT('',#939) ;
#964=VERTEX_POINT('',#963) ;
#988=VERTEX_POINT('',#987) ;
#1012=VERTEX_POINT('',#1011) ;
#1053=VERTEX_POINT('',#1052) ;
#1060=VERTEX_POINT('',#1059) ;
#1084=VERTEX_POINT('',#1083) ;
#1091=VERTEX_POINT('',#1090) ;
#1166=VERTEX_POINT('',#1165) ;
#1173=VERTEX_POINT('',#1172) ;
#1219=VERTEX_POINT('',#1218) ;
#1226=VERTEX_POINT('',#1225) ;
#11=PRODUCT_DEFINITION_SHAPE(' ',' ',#10) ;
#1395=MECHANICAL_DESIGN_GEOMETRIC_PRESENTATION_REPRESENTATION(' ',(#29),#16) ;
#1396=MECHANICAL_DESIGN_GEOMETRIC_PRESENTATION_REPRESENTATION(' ',(#1374,#1385,#1394),#16) ;
#7=PRODUCT_CATEGORY('part','specification') ;
#15=UNCERTAINTY_MEASURE_WITH_UNIT(LENGTH_MEASURE(0.005),#12,'distance_accuracy_value','CONFUSED CURVE UNCERTAINTY') ;
#8=PRODUCT_RELATED_PRODUCT_CATEGORY('part',$,(#5)) ;
#29=STYLED_ITEM(' ',(#28),#21) ;
#1374=STYLED_ITEM(' ',(#1373),#1369) ;
#1385=STYLED_ITEM(' ',(#1384),#1381) ;
#1394=STYLED_ITEM(' ',(#1393),#1391) ;
#28=PRESENTATION_STYLE_ASSIGNMENT((#27)) ;
#1373=PRESENTATION_STYLE_ASSIGNMENT((#1372)) ;
#1384=PRESENTATION_STYLE_ASSIGNMENT((#1383)) ;
#1393=PRESENTATION_STYLE_ASSIGNMENT((#1392)) ;
#1372=CURVE_STYLE(' ',#1370,POSITIVE_LENGTH_MEASURE(0.129999995232),#1371) ;
#1383=CURVE_STYLE(' ',#1382,POSITIVE_LENGTH_MEASURE(0.129999995232),#1371) ;
#1392=CURVE_STYLE(' ',#1382,POSITIVE_LENGTH_MEASURE(0.129999995232),#1371) ;
#24=FILL_AREA_STYLE(' ',(#23)) ;
#23=FILL_AREA_STYLE_COLOUR(' ',#22) ;
#38=VECTOR('Line Direction',#37,1.) ;
#47=VECTOR('Line Direction',#46,1.) ;
#54=VECTOR('Line Direction',#53,1.) ;
#61=VECTOR('Line Direction',#60,1.) ;
#78=VECTOR('Line Direction',#77,1.) ;
#112=VECTOR('Line Direction',#111,1.) ;
#137=VECTOR('Line Direction',#136,1.) ;
#160=VECTOR('Line Direction',#159,1.) ;
#174=VECTOR('Line Direction',#173,1.) ;
#196=VECTOR('Line Direction',#195,1.) ;
#210=VECTOR('Line Direction',#209,1.) ;
#224=VECTOR('Line Direction',#223,1.) ;
#252=VECTOR('Line Direction',#251,1.) ;
#279=VECTOR('Line Direction',#278,1.) ;
#286=VECTOR('Line Direction',#285,1.) ;
#293=VECTOR('Line Direction',#292,1.) ;
#310=VECTOR('Line Direction',#309,1.) ;
#327=VECTOR('Line Direction',#326,1.) ;
#334=VECTOR('Line Direction',#333,1.) ;
#341=VECTOR('Line Direction',#340,1.) ;
#389=VECTOR('Line Direction',#388,1.) ;
#396=VECTOR('Line Direction',#395,1.) ;
#403=VECTOR('Line Direction',#402,1.) ;
#420=VECTOR('Line Direction',#419,1.) ;
#444=VECTOR('Line Direction',#443,1.) ;
#451=VECTOR('Line Direction',#450,1.) ;
#468=VECTOR('Line Direction',#467,1.) ;
#492=VECTOR('Line Direction',#491,1.) ;
#499=VECTOR('Line Direction',#498,1.) ;
#516=VECTOR('Line Direction',#515,1.) ;
#540=VECTOR('Line Direction',#539,1.) ;
#547=VECTOR('Line Direction',#546,1.) ;
#581=VECTOR('Line Direction',#580,1.) ;
#590=VECTOR('Line Direction',#589,1.) ;
#597=VECTOR('Line Direction',#596,1.) ;
#612=VECTOR('Line Direction',#611,1.) ;
#643=VECTOR('Line Direction',#642,1.) ;
#670=VECTOR('Line Direction',#669,1.) ;
#677=VECTOR('Line Direction',#676,1.) ;
#731=VECTOR('Line Direction',#730,1.) ;
#738=VECTOR('Line Direction',#737,1.) ;
#745=VECTOR('Line Direction',#744,1.) ;
#786=VECTOR('Line Direction',#785,1.) ;
#824=VECTOR('Line Direction',#823,1.) ;
#841=VECTOR('Line Direction',#840,1.) ;
#872=VECTOR('Line Direction',#871,1.) ;
#920=VECTOR('Line Direction',#919,1.) ;
#968=VECTOR('Line Direction',#967,1.) ;
#1016=VECTOR('Line Direction',#1015,1.) ;
#1057=VECTOR('Line Direction',#1056,1.) ;
#1088=VECTOR('Line Direction',#1087,1.) ;
#1129=VECTOR('Line Direction',#1128,1.) ;
#1146=VECTOR('Line Direction',#1145,1.) ;
#1170=VECTOR('Line Direction',#1169,1.) ;
#1223=VECTOR('Line Direction',#1222,1.) ;
#1268=VECTOR('Line Direction',#1267,1.) ;
#1339=VECTOR('Line Direction',#1338,1.) ;
#1347=VECTOR('Line Direction',#1346,1.) ;
#1355=VECTOR('Line Direction',#1354,1.) ;
#1363=VECTOR('Line Direction',#1362,1.) ;
#32=DIRECTION('Axis2P3D Direction',(1.,0.,0.)) ;
#33=DIRECTION('Axis2P3D XDirection',(0.,-1.,0.)) ;
#37=DIRECTION('Vector Direction',(0.,0.,-1.)) ;
#46=DIRECTION('Vector Direction',(0.,-1.,0.)) ;
#53=DIRECTION('Vector Direction',(0.,0.,-1.)) ;
#60=DIRECTION('Vector Direction',(0.,-1.,0.)) ;
#72=DIRECTION('Axis2P3D Direction',(0.,0.,1.)) ;
#73=DIRECTION('Axis2P3D XDirection',(-1.83697019872E-16,-1.,0.)) ;
#77=DIRECTION('Vector Direction',(0.,0.,1.)) ;
#86=DIRECTION('Axis2P3D Direction',(0.,0.,1.)) ;
#106=DIRECTION('Axis2P3D Direction',(0.,0.,1.)) ;
#107=DIRECTION('Axis2P3D XDirection',(1.,0.,0.)) ;
#111=DIRECTION('Vector Direction',(1.,0.,0.)) ;
#136=DIRECTION('Vector Direction',(0.,1.,0.)) ;
#159=DIRECTION('Vector Direction',(-1.,0.,0.)) ;
#166=DIRECTION('Axis2P3D Direction',(0.,0.,1.)) ;
#173=DIRECTION('Vector Direction',(0.,-1.,0.)) ;
#180=DIRECTION('Axis2P3D Direction',(0.,0.,1.)) ;
#195=DIRECTION('Vector Direction',(1.,0.,0.)) ;
#204=DIRECTION('Axis2P3D Direction',(0.,0.,1.)) ;
#209=DIRECTION('Vector Direction',(-1.,0.,0.)) ;
#216=DIRECTION('Axis2P3D Direction',(0.,0.,1.)) ;
#223=DIRECTION('Vector Direction',(0.,1.,0.)) ;
#230=DIRECTION('Axis2P3D Direction',(0.,0.,1.)) ;
#246=DIRECTION('Axis2P3D Direction',(0.,0.,1.)) ;
#247=DIRECTION('Axis2P3D XDirection',(1.,0.,0.)) ;
#251=DIRECTION('Vector Direction',(0.,0.,1.)) ;
#273=DIRECTION('Axis2P3D Direction',(-0.939692620786,0.,0.342020143326)) ;
#274=DIRECTION('Axis2P3D XDirection',(0.,1.,0.)) ;
#278=DIRECTION('Vector Direction',(-0.342020143326,0.,-0.939692620786)) ;
#285=DIRECTION('Vector Direction',(0.,1.,0.)) ;
#292=DIRECTION('Vector Direction',(-0.342020143326,0.,-0.939692620786)) ;
#304=DIRECTION('Axis2P3D Direction',(-0.,-1.,-0.)) ;
#305=DIRECTION('Axis2P3D XDirection',(-1.,0.,0.)) ;
#309=DIRECTION('Vector Direction',(0.,0.,-1.)) ;
#326=DIRECTION('Vector Direction',(0.,0.,-1.)) ;
#333=DIRECTION('Vector Direction',(-1.,0.,0.)) ;
#340=DIRECTION('Vector Direction',(0.,0.,-1.)) ;
#366=DIRECTION('Axis2P3D Direction',(2.04306960733E-12,-1.41269211772E-12,1.)) ;
#367=DIRECTION('Axis2P3D XDirection',(-0.309016994375,-0.951056516295,-7.12338118893E-13)) ;
#371=DIRECTION('Axis2P3D Direction',(2.04302903211E-12,-1.41281699541E-12,1.)) ;
#383=DIRECTION('Axis2P3D Direction',(-0.,1.,0.)) ;
#384=DIRECTION('Axis2P3D XDirection',(1.,0.,0.)) ;
#388=DIRECTION('Vector Direction',(0.,0.,-1.)) ;
#395=DIRECTION('Vector Direction',(0.,0.,-1.)) ;
#402=DIRECTION('Vector Direction',(-1.,0.,0.)) ;
#414=DIRECTION('Axis2P3D Direction',(-0.,0.,-1.)) ;
#415=DIRECTION('Axis2P3D XDirection',(-1.,-1.83697019872E-16,0.)) ;
#419=DIRECTION('Vector Direction',(0.,0.,-1.)) ;
#426=DIRECTION('Axis2P3D Direction',(-0.,0.,-1.)) ;
#438=DIRECTION('Axis2P3D Direction',(-1.,0.,0.)) ;
#439=DIRECTION('Axis2P3D XDirection',(0.,1.,0.)) ;
#443=DIRECTION('Vector Direction',(0.,0.,-1.)) ;
#450=DIRECTION('Vector Direction',(0.,-1.,0.)) ;
#462=DIRECTION('Axis2P3D Direction',(0.,0.,-1.)) ;
#463=DIRECTION('Axis2P3D XDirection',(1.83697019872E-16,-1.,-0.)) ;
#467=DIRECTION('Vector Direction',(0.,0.,-1.)) ;
#474=DIRECTION('Axis2P3D Direction',(0.,0.,-1.)) ;
#486=DIRECTION('Axis2P3D Direction',(-0.,-1.,-0.)) ;
#487=DIRECTION('Axis2P3D XDirection',(-1.,0.,0.)) ;
#491=DIRECTION('Vector Direction',(0.,0.,-1.)) ;
#498=DIRECTION('Vector Direction',(1.,0.,0.)) ;
#510=DIRECTION('Axis2P3D Direction',(0.,0.,-1.)) ;
#511=DIRECTION('Axis2P3D XDirection',(1.,1.83697019872E-16,0.)) ;
#515=DIRECTION('Vector Direction',(0.,0.,-1.)) ;
#522=DIRECTION('Axis2P3D Direction',(0.,0.,-1.)) ;
#534=DIRECTION('Axis2P3D Direction',(1.,0.,0.)) ;
#535=DIRECTION('Axis2P3D XDirection',(0.,-1.,0.)) ;
#539=DIRECTION('Vector Direction',(0.,0.,-1.)) ;
#546=DIRECTION('Vector Direction',(0.,1.,0.)) ;
#558=DIRECTION('Axis2P3D Direction',(0.,0.,-1.)) ;
#559=DIRECTION('Axis2P3D XDirection',(-1.83697019872E-16,1.,0.)) ;
#563=DIRECTION('Axis2P3D Direction',(0.,0.,-1.)) ;
#575=DIRECTION('Axis2P3D Direction',(-0.,1.,0.)) ;
#576=DIRECTION('Axis2P3D XDirection',(1.,0.,0.)) ;
#580=DIRECTION('Vector Direction',(0.,0.,-1.)) ;
#589=DIRECTION('Vector Direction',(1.,0.,0.)) ;
#596=DIRECTION('Vector Direction',(0.,0.,-1.)) ;
#611=DIRECTION('Vector Direction',(0.,0.,-1.)) ;
#637=DIRECTION('Axis2P3D Direction',(0.,0.,1.)) ;
#638=DIRECTION('Axis2P3D XDirection',(-1.,1.22464679915E-16,0.)) ;
#642=DIRECTION('Vector Direction',(0.,0.,1.)) ;
#664=DIRECTION('Axis2P3D Direction',(-1.,0.,0.)) ;
#665=DIRECTION('Axis2P3D XDirection',(0.,1.,0.)) ;
#669=DIRECTION('Vector Direction',(0.,0.,-1.)) ;
#676=DIRECTION('Vector Direction',(0.,1.,0.)) ;
#688=DIRECTION('Axis2P3D Direction',(0.,-0.,1.)) ;
#689=DIRECTION('Axis2P3D XDirection',(6.12323399574E-17,1.,0.)) ;
#708=DIRECTION('Axis2P3D Direction',(3.36201327788E-13,1.60018901207E-13,1.)) ;
#709=DIRECTION('Axis2P3D XDirection',(0.836788989045,-0.547525513391,-1.93877958964E-13)) ;
#713=DIRECTION('Axis2P3D Direction',(3.36337574444E-13,1.59929752663E-13,1.)) ;
#725=DIRECTION('Axis2P3D Direction',(1.,0.,0.)) ;
#726=DIRECTION('Axis2P3D XDirection',(0.,-1.,0.)) ;
#730=DIRECTION('Vector Direction',(0.,0.,-1.)) ;
#737=DIRECTION('Vector Direction',(0.,-1.,0.)) ;
#744=DIRECTION('Vector Direction',(0.,0.,-1.)) ;
#756=DIRECTION('Axis2P3D Direction',(0.,0.,-1.)) ;
#757=DIRECTION('Axis2P3D XDirection',(1.,0.,0.)) ;
#761=DIRECTION('Axis2P3D Direction',(0.,0.,-1.)) ;
#773=DIRECTION('Axis2P3D Direction',(-1.,0.,0.)) ;
#774=DIRECTION('Axis2P3D XDirection',(0.,0.,-1.)) ;
#778=DIRECTION('Axis2P3D Direction',(-1.,0.,0.)) ;
#785=DIRECTION('Vector Direction',(-1.,0.,0.)) ;
#792=DIRECTION('Axis2P3D Direction',(-1.,0.,0.)) ;
#804=DIRECTION('Axis2P3D Direction',(0.,0.,-1.)) ;
#805=DIRECTION('Axis2P3D XDirection',(0.,-1.,0.)) ;
#809=DIRECTION('Axis2P3D Direction',(0.,0.,-1.)) ;
#816=DIRECTION('Axis2P3D Direction',(0.,0.,-1.)) ;
#823=DIRECTION('Vector Direction',(0.,0.,-1.)) ;
#835=DIRECTION('Axis2P3D Direction',(-4.91371171382E-13,-2.11742182405E-13,1.)) ;
#836=DIRECTION('Axis2P3D XDirection',(-0.836788989044,0.547525513391,-2.95173746513E-13)) ;
#840=DIRECTION('Vector Direction',(-0.342020143326,-4.26095567718E-15,0.939692620786)) ;
#852=DIRECTION('Axis2P3D Direction',(-1.,0.,0.)) ;
#853=DIRECTION('Axis2P3D XDirection',(0.,1.,0.)) ;
#857=DIRECTION('Axis2P3D Direction',(-1.,0.,0.)) ;
#864=DIRECTION('Axis2P3D Direction',(-1.,0.,0.)) ;
#871=DIRECTION('Vector Direction',(-1.,0.,0.)) ;
#883=DIRECTION('Axis2P3D Direction',(0.,0.,1.)) ;
#884=DIRECTION('Axis2P3D XDirection',(4.73695157173E-15,1.,0.)) ;
#888=DIRECTION('Axis2P3D Direction',(-4.46666346332E-10,1.,0.)) ;
#895=DIRECTION('Axis2P3D Direction',(0.,-0.,1.)) ;
#907=DIRECTION('Axis2P3D Direction',(0.,-1.,0.)) ;
#908=DIRECTION('Axis2P3D XDirection',(-1.,0.,0.)) ;
#912=DIRECTION('Axis2P3D Direction',(0.,-1.,0.)) ;
#919=DIRECTION('Vector Direction',(0.,-1.,0.)) ;
#931=DIRECTION('Axis2P3D Direction',(-0.,0.,1.)) ;
#932=DIRECTION('Axis2P3D XDirection',(-1.,-2.96059473233E-16,0.)) ;
#936=DIRECTION('Axis2P3D Direction',(-1.,2.09262076574E-16,-0.)) ;
#943=DIRECTION('Axis2P3D Direction',(0.,0.,1.)) ;
#955=DIRECTION('Axis2P3D Direction',(1.,0.,0.)) ;
#956=DIRECTION('Axis2P3D XDirection',(0.,-1.,0.)) ;
#960=DIRECTION('Axis2P3D Direction',(1.,0.,0.)) ;
#967=DIRECTION('Vector Direction',(1.,0.,0.)) ;
#979=DIRECTION('Axis2P3D Direction',(-0.,0.,1.)) ;
#980=DIRECTION('Axis2P3D XDirection',(-4.73695157173E-15,-1.,0.)) ;
#984=DIRECTION('Axis2P3D Direction',(4.46666346332E-10,-1.,0.)) ;
#991=DIRECTION('Axis2P3D Direction',(0.,0.,1.)) ;
#1003=DIRECTION('Axis2P3D Direction',(-0.,1.,0.)) ;
#1004=DIRECTION('Axis2P3D XDirection',(1.,0.,0.)) ;
#1008=DIRECTION('Axis2P3D Direction',(-0.,1.,0.)) ;
#1015=DIRECTION('Vector Direction',(0.,1.,0.)) ;
#1027=DIRECTION('Axis2P3D Direction',(0.,0.,1.)) ;
#1028=DIRECTION('Axis2P3D XDirection',(1.,2.96059473233E-16,0.)) ;
#1032=DIRECTION('Axis2P3D Direction',(0.,-0.,1.)) ;
#1044=DIRECTION('Axis2P3D Direction',(0.,0.,-1.)) ;
#1045=DIRECTION('Axis2P3D XDirection',(-1.,0.,0.)) ;
#1049=DIRECTION('Axis2P3D Direction',(0.,0.,-1.)) ;
#1056=DIRECTION('Vector Direction',(0.,0.,-1.)) ;
#1063=DIRECTION('Axis2P3D Direction',(0.,0.,-1.)) ;
#1075=DIRECTION('Axis2P3D Direction',(1.,0.,0.)) ;
#1076=DIRECTION('Axis2P3D XDirection',(0.,0.,-1.)) ;
#1080=DIRECTION('Axis2P3D Direction',(1.,0.,0.)) ;
#1087=DIRECTION('Vector Direction',(1.,0.,0.)) ;
#1094=DIRECTION('Axis2P3D Direction',(1.,0.,0.)) ;
#1106=DIRECTION('Axis2P3D Direction',(0.,0.,-1.)) ;
#1107=DIRECTION('Axis2P3D XDirection',(0.,1.,0.)) ;
#1111=DIRECTION('Axis2P3D Direction',(0.,0.,-1.)) ;
#1123=DIRECTION('Axis2P3D Direction',(-2.7671955441E-12,1.6147361849E-12,1.)) ;
#1124=DIRECTION('Axis2P3D XDirection',(2.45251847533E-13,1.,-1.6147419897E-12)) ;
#1128=DIRECTION('Vector Direction',(-0.342020143327,6.59403582493E-13,0.939692620786)) ;
#1140=DIRECTION('Axis2P3D Direction',(0.939692620786,0.,0.342020143326)) ;
#1141=DIRECTION('Axis2P3D XDirection',(0.,-1.,0.)) ;
#1145=DIRECTION('Vector Direction',(0.,-1.,0.)) ;
#1157=DIRECTION('Axis2P3D Direction',(0.,-1.,0.)) ;
#1158=DIRECTION('Axis2P3D XDirection',(0.,0.,-1.)) ;
#1162=DIRECTION('Axis2P3D Direction',(0.,-1.,0.)) ;
#1169=DIRECTION('Vector Direction',(0.,-1.,0.)) ;
#1176=DIRECTION('Axis2P3D Direction',(0.,-1.,0.)) ;
#1188=DIRECTION('Axis2P3D Direction',(0.,-0.,-1.)) ;
#1189=DIRECTION('Axis2P3D XDirection',(1.,-1.18423789293E-15,0.)) ;
#1193=DIRECTION('Axis2P3D Direction',(0.,-0.,-1.)) ;
#1205=DIRECTION('Axis2P3D Direction',(0.,0.,-1.)) ;
#1206=DIRECTION('Axis2P3D XDirection',(1.,0.,0.)) ;
#1210=DIRECTION('Axis2P3D Direction',(0.,0.,-1.)) ;
#1215=DIRECTION('Axis2P3D Direction',(0.,0.,-1.)) ;
#1222=DIRECTION('Vector Direction',(0.,1.,0.)) ;
#1229=DIRECTION('Axis2P3D Direction',(0.,0.,-1.)) ;
#1245=DIRECTION('Axis2P3D Direction',(0.,-0.,-1.)) ;
#1246=DIRECTION('Axis2P3D XDirection',(0.,-1.,0.)) ;
#1250=DIRECTION('Axis2P3D Direction',(6.12323399574E-17,-1.,0.)) ;
#1262=DIRECTION('Axis2P3D Direction',(-1.,0.,0.)) ;
#1263=DIRECTION('Axis2P3D XDirection',(0.,1.,0.)) ;
#1267=DIRECTION('Vector Direction',(0.,1.,0.)) ;
#1279=DIRECTION('Axis2P3D Direction',(0.,0.,1.)) ;
#1280=DIRECTION('Axis2P3D XDirection',(1.,0.,0.)) ;
#1295=DIRECTION('Axis2P3D Direction',(0.,0.,-1.)) ;
#1296=DIRECTION('Axis2P3D XDirection',(-1.,1.48029736617E-15,0.)) ;
#1300=DIRECTION('Axis2P3D Direction',(-1.48029736617E-15,-1.,-0.)) ;
#1312=DIRECTION('Axis2P3D Direction',(0.,0.,-1.)) ;
#1313=DIRECTION('Axis2P3D XDirection',(0.,1.,0.)) ;
#1324=DIRECTION('Axis2P3D Direction',(0.,1.,0.)) ;
#1325=DIRECTION('Axis2P3D XDirection',(0.,0.,-1.)) ;
#1338=DIRECTION('Vector Direction',(1.,0.,0.)) ;
#1346=DIRECTION('Vector Direction',(0.,-1.,0.)) ;
#1354=DIRECTION('Vector Direction',(-1.,0.,0.)) ;
#1362=DIRECTION('Vector Direction',(0.,1.,0.)) ;
#1379=DIRECTION('Axis2P3D Direction',(0.,0.,1.)) ;
#1380=DIRECTION('Axis2P3D XDirection',(1.,0.,0.)) ;
#1389=DIRECTION('Axis2P3D Direction',(0.,0.,1.)) ;
#1390=DIRECTION('Axis2P3D XDirection',(1.,0.,0.)) ;
#17=CARTESIAN_POINT(' ',(0.,0.,0.)) ;
#31=CARTESIAN_POINT('Axis2P3D Location',(59.7,2.9,0.)) ;
#36=CARTESIAN_POINT('Line Origine',(59.7,-2.90000000075,-0.650000000373)) ;
#40=CARTESIAN_POINT('Vertex',(59.7,-2.90000000075,0.)) ;
#42=CARTESIAN_POINT('Vertex',(59.7,-2.90000000075,-1.30000000075)) ;
#45=CARTESIAN_POINT('Line Origine',(59.7,-3.72529118664E-10,0.)) ;
#49=CARTESIAN_POINT('Vertex',(59.7,2.9,0.)) ;
#52=CARTESIAN_POINT('Line Origine',(59.7,2.9,-0.650000000373)) ;
#56=CARTESIAN_POINT('Vertex',(59.7,2.9,-1.30000000075)) ;
#59=CARTESIAN_POINT('Line Origine',(59.7,-3.72529118664E-10,-1.30000000075)) ;
#71=CARTESIAN_POINT('Axis2P3D Location',(56.7,-2.9,-0.65)) ;
#76=CARTESIAN_POINT('Line Origine',(56.7,-5.9,-0.650000000373)) ;
#80=CARTESIAN_POINT('Vertex',(56.7,-5.9,-1.57016988434)) ;
#82=CARTESIAN_POINT('Vertex',(56.7,-5.9,3.72529007642E-10)) ;
#85=CARTESIAN_POINT('Axis2P3D Location',(56.7,-2.9,3.72529007642E-10)) ;
#91=CARTESIAN_POINT('Control Point',(59.7,-2.90000000001,-1.30000000037)) ;
#92=CARTESIAN_POINT('Control Point',(59.7,-3.84484816685,-1.30000000038)) ;
#93=CARTESIAN_POINT('Control Point',(59.3284544129,-4.79292981185,-1.33307364195)) ;
#94=CARTESIAN_POINT('Control Point',(58.5790524295,-5.5338085935,-1.39922654022)) ;
#95=CARTESIAN_POINT('Control Point',(57.6389210492,-5.89999999991,-1.48422885759)) ;
#96=CARTESIAN_POINT('Control Point',(56.7000000003,-5.9,-1.57016988434)) ;
#105=CARTESIAN_POINT('Axis2P3D Location',(0.,0.,0.)) ;
#110=CARTESIAN_POINT('Line Origine',(0.,6.27999999933,0.)) ;
#114=CARTESIAN_POINT('Vertex',(57.,6.27999999933,0.)) ;
#116=CARTESIAN_POINT('Vertex',(-57.,6.27999999933,0.)) ;
#120=CARTESIAN_POINT('Control Point',(-60.,3.27999999933,0.)) ;
#121=CARTESIAN_POINT('Control Point',(-60.,3.61935333237,0.)) ;
#122=CARTESIAN_POINT('Control Point',(-59.9520163726,3.95870561013,0.)) ;
#123=CARTESIAN_POINT('Control Point',(-59.8559566458,4.28923560279,0.)) ;
#124=CARTESIAN_POINT('Control Point',(-59.5732008627,4.91365892747,0.)) ;
#125=CARTESIAN_POINT('Control Point',(-59.1284103517,5.43520564079,0.)) ;
#126=CARTESIAN_POINT('Control Point',(-58.8701563271,5.66276314032,0.)) ;
#127=CARTESIAN_POINT('Control Point',(-58.3607123363,5.99648077223,0.)) ;
#128=CARTESIAN_POINT('Control Point',(-57.7868105333,6.19308161695,0.)) ;
#129=CARTESIAN_POINT('Control Point',(-57.5273247543,6.25103416572,0.)) ;
#130=CARTESIAN_POINT('Control Point',(-57.263662653,6.27999999933,0.)) ;
#131=CARTESIAN_POINT('Control Point',(-57.,6.27999999933,0.)) ;
#132=CARTESIAN_POINT('Vertex',(-60.,3.28,5.21538368048E-10)) ;
#135=CARTESIAN_POINT('Line Origine',(-60.,0.,0.)) ;
#139=CARTESIAN_POINT('Vertex',(-60.,-3.27999999933,0.)) ;
#143=CARTESIAN_POINT('Control Point',(-57.,-6.27999999933,0.)) ;
#144=CARTESIAN_POINT('Control Point',(-57.3393533334,-6.27999999933,0.)) ;
#145=CARTESIAN_POINT('Control Point',(-57.6787056116,-6.23201637193,0.)) ;
#146=CARTESIAN_POINT('Control Point',(-58.0092356047,-6.13595664567,0.)) ;
#147=CARTESIAN_POINT('Control Point',(-58.633658923,-5.85320086529,0.)) ;
#148=CARTESIAN_POINT('Control Point',(-59.155205632,-5.40841036045,0.)) ;
#149=CARTESIAN_POINT('Control Point',(-59.3827631461,-5.15015632084,0.)) ;
#150=CARTESIAN_POINT('Control Point',(-59.7164807717,-4.64071233897,0.)) ;
#151=CARTESIAN_POINT('Control Point',(-59.9130816143,-4.06681054634,0.)) ;
#152=CARTESIAN_POINT('Control Point',(-59.9710341671,-3.80732474725,0.)) ;
#153=CARTESIAN_POINT('Control Point',(-60.,-3.54366264911,0.)) ;
#154=CARTESIAN_POINT('Control Point',(-60.,-3.27999999933,0.)) ;
#155=CARTESIAN_POINT('Vertex',(-57.,-6.28,5.21538368048E-10)) ;
#158=CARTESIAN_POINT('Line Origine',(0.,-6.27999999933,0.)) ;
#162=CARTESIAN_POINT('Vertex',(57.,-6.27999999933,0.)) ;
#165=CARTESIAN_POINT('Axis2P3D Location',(57.0000000032,-3.28000000257,0.)) ;
#169=CARTESIAN_POINT('Vertex',(60.,-3.27999999933,0.)) ;
#172=CARTESIAN_POINT('Line Origine',(60.,0.,0.)) ;
#176=CARTESIAN_POINT('Vertex',(60.,3.27999999933,0.)) ;
#179=CARTESIAN_POINT('Axis2P3D Location',(57.0000000032,3.28000000257,0.)) ;
#194=CARTESIAN_POINT('Line Origine',(0.,5.90000000037,0.)) ;
#198=CARTESIAN_POINT('Vertex',(56.6999999993,5.90000000037,0.)) ;
#200=CARTESIAN_POINT('Vertex',(-56.6999999993,5.90000000037,0.)) ;
#203=CARTESIAN_POINT('Axis2P3D Location',(56.6999999993,2.90000000043,0.)) ;
#208=CARTESIAN_POINT('Line Origine',(0.,-5.90000000037,0.)) ;
#212=CARTESIAN_POINT('Vertex',(-56.6999999993,-5.90000000037,0.)) ;
#215=CARTESIAN_POINT('Axis2P3D Location',(-56.6999999993,-2.90000000043,0.)) ;
#219=CARTESIAN_POINT('Vertex',(-59.6999999993,-2.90000000037,0.)) ;
#222=CARTESIAN_POINT('Line Origine',(-59.6999999993,0.,0.)) ;
#226=CARTESIAN_POINT('Vertex',(-59.6999999993,2.90000000037,0.)) ;
#229=CARTESIAN_POINT('Axis2P3D Location',(-56.6999999993,2.90000000043,0.)) ;
#245=CARTESIAN_POINT('Axis2P3D Location',(56.7,2.9,-0.65)) ;
#250=CARTESIAN_POINT('Line Origine',(56.7,5.9,-0.650000000373)) ;
#254=CARTESIAN_POINT('Vertex',(56.7000000003,5.9,-1.57016988434)) ;
#258=CARTESIAN_POINT('Control Point',(59.7,2.9,-1.30000000037)) ;
#259=CARTESIAN_POINT('Control Point',(59.7,3.84484906989,-1.30000000037)) ;
#260=CARTESIAN_POINT('Control Point',(59.3284536693,4.79292869982,-1.33307483033)) ;
#261=CARTESIAN_POINT('Control Point',(58.5790545629,5.53380747624,-1.39922617649)) ;
#262=CARTESIAN_POINT('Control Point',(57.6389219797,5.89999999991,-1.484228773)) ;
#263=CARTESIAN_POINT('Control Point',(56.7000000003,5.9,-1.57016988434)) ;
#272=CARTESIAN_POINT('Axis2P3D Location',(59.7,-2.68,-1.3)) ;
#277=CARTESIAN_POINT('Line Origine',(59.6499999998,2.90000000007,-1.43737387143)) ;
#281=CARTESIAN_POINT('Vertex',(59.5999999997,2.90000000007,-1.57474774285)) ;
#284=CARTESIAN_POINT('Line Origine',(59.6000000003,-2.98023383749E-10,-1.5747477411)) ;
#288=CARTESIAN_POINT('Vertex',(59.6000000003,-2.90000000067,-1.5747477411)) ;
#291=CARTESIAN_POINT('Line Origine',(59.6500000002,-2.90000000067,-1.43737387055)) ;
#303=CARTESIAN_POINT('Axis2P3D Location',(59.6,-5.9,0.)) ;
#308=CARTESIAN_POINT('Line Origine',(-56.7000000007,-5.9,-0.785084942356)) ;
#312=CARTESIAN_POINT('Vertex',(-56.7000000007,-5.9,-1.57016988471)) ;
#316=CARTESIAN_POINT('Control Point',(56.6999999996,-5.9,-1.57016988471)) ;
#317=CARTESIAN_POINT('Control Point',(56.6800575968,-5.9,-1.57199524762)) ;
#318=CARTESIAN_POINT('Control Point',(56.6600771949,-5.9,-1.57336975543)) ;
#319=CARTESIAN_POINT('Control Point',(56.640038342,-5.9,-1.57428915285)) ;
#320=CARTESIAN_POINT('Control Point',(56.6200191694,-5.9,-1.57474774122)) ;
#321=CARTESIAN_POINT('Control Point',(56.6,-5.9,-1.57474774122)) ;
#322=CARTESIAN_POINT('Vertex',(56.6,-5.9,-1.57474774309)) ;
#325=CARTESIAN_POINT('Line Origine',(56.6,-5.9,-32.4348738715)) ;
#329=CARTESIAN_POINT('Vertex',(56.6,-5.9,-63.2949999999)) ;
#332=CARTESIAN_POINT('Line Origine',(3.72530450932E-10,-5.9,-63.2949999999)) ;
#336=CARTESIAN_POINT('Vertex',(-56.5999999993,-5.9,-63.2949999999)) ;
#339=CARTESIAN_POINT('Line Origine',(-56.5999999993,-5.9,-32.4348738706)) ;
#343=CARTESIAN_POINT('Vertex',(-56.5999999993,-5.9,-1.57474774122)) ;
#347=CARTESIAN_POINT('Control Point',(-56.7000000007,-5.9,-1.57016988471)) ;
#348=CARTESIAN_POINT('Control Point',(-56.6800575985,-5.9,-1.57199524759)) ;
#349=CARTESIAN_POINT('Control Point',(-56.6600771806,-5.9,-1.57336955259)) ;
#350=CARTESIAN_POINT('Control Point',(-56.6400383415,-5.9,-1.57428894575)) ;
#351=CARTESIAN_POINT('Control Point',(-56.6200191692,-5.9,-1.57474774122)) ;
#352=CARTESIAN_POINT('Control Point',(-56.5999999993,-5.9,-1.57474774122)) ;
#365=CARTESIAN_POINT('Axis2P3D Location',(56.6,-2.89999999999,-9.81718000033)) ;
#370=CARTESIAN_POINT('Axis2P3D Location',(56.6,-2.9,-1.57474774284)) ;
#382=CARTESIAN_POINT('Axis2P3D Location',(-60.,6.28,0.)) ;
#387=CARTESIAN_POINT('Line Origine',(-57.,6.28,-31.7474999996)) ;
#391=CARTESIAN_POINT('Vertex',(-57.,6.28,-63.4949999992)) ;
#394=CARTESIAN_POINT('Line Origine',(57.,6.28,-31.7474999996)) ;
#398=CARTESIAN_POINT('Vertex',(57.,6.28,-63.4949999992)) ;
#401=CARTESIAN_POINT('Line Origine',(0.,6.28,-63.4949999992)) ;
#413=CARTESIAN_POINT('Axis2P3D Location',(-57.,3.28,-32.4975)) ;
#418=CARTESIAN_POINT('Line Origine',(-60.,3.28,-32.4975000005)) ;
#422=CARTESIAN_POINT('Vertex',(-60.,3.28000000052,-63.4949999987)) ;
#425=CARTESIAN_POINT('Axis2P3D Location',(-57.,3.28,-63.4949999987)) ;
#437=CARTESIAN_POINT('Axis2P3D Location',(-60.,-6.28,0.)) ;
#442=CARTESIAN_POINT('Line Origine',(-60.,-3.28,-31.7474999996)) ;
#446=CARTESIAN_POINT('Vertex',(-60.,-3.28,-63.4949999992)) ;
#449=CARTESIAN_POINT('Line Origine',(-60.,2.60770072202E-10,-63.4949999992)) ;
#461=CARTESIAN_POINT('Axis2P3D Location',(-57.,-3.28,-32.4975)) ;
#466=CARTESIAN_POINT('Line Origine',(-57.,-6.28,-32.4975000005)) ;
#470=CARTESIAN_POINT('Vertex',(-57.,-6.28,-63.4950000005)) ;
#473=CARTESIAN_POINT('Axis2P3D Location',(-57.,-3.28,-63.4950000005)) ;
#485=CARTESIAN_POINT('Axis2P3D Location',(60.,-6.28,0.)) ;
#490=CARTESIAN_POINT('Line Origine',(57.,-6.28,-31.7474999996)) ;
#494=CARTESIAN_POINT('Vertex',(57.,-6.28,-63.4949999992)) ;
#497=CARTESIAN_POINT('Line Origine',(0.,-6.28,-63.4949999992)) ;
#509=CARTESIAN_POINT('Axis2P3D Location',(57.,-3.28,-32.4975)) ;
#514=CARTESIAN_POINT('Line Origine',(60.,-3.28,-32.4975000005)) ;
#518=CARTESIAN_POINT('Vertex',(60.,-3.28,-63.4950000005)) ;
#521=CARTESIAN_POINT('Axis2P3D Location',(57.,-3.28,-63.4950000005)) ;
#533=CARTESIAN_POINT('Axis2P3D Location',(60.,6.28,0.)) ;
#538=CARTESIAN_POINT('Line Origine',(60.,3.28,-31.7474999996)) ;
#542=CARTESIAN_POINT('Vertex',(60.,3.28,-63.4949999992)) ;
#545=CARTESIAN_POINT('Line Origine',(60.,-2.60770072202E-10,-63.4949999992)) ;
#557=CARTESIAN_POINT('Axis2P3D Location',(57.,3.28,-32.4975)) ;
#562=CARTESIAN_POINT('Axis2P3D Location',(57.,3.28,-63.4949999987)) ;
#574=CARTESIAN_POINT('Axis2P3D Location',(-59.6,5.9,0.)) ;
#579=CARTESIAN_POINT('Line Origine',(-56.6,5.9,-32.4348738706)) ;
#583=CARTESIAN_POINT('Vertex',(-56.6,5.9,-63.2949999999)) ;
#585=CARTESIAN_POINT('Vertex',(-56.6,5.9,-1.57474774122)) ;
#588=CARTESIAN_POINT('Line Origine',(-3.72530450932E-10,5.9,-63.2949999999)) ;
#592=CARTESIAN_POINT('Vertex',(56.5999999993,5.9,-63.2949999999)) ;
#595=CARTESIAN_POINT('Line Origine',(56.5999999993,5.9,-32.4348738706)) ;
#599=CARTESIAN_POINT('Vertex',(56.5999999993,5.9,-1.57474774122)) ;
#603=CARTESIAN_POINT('Control Point',(56.7000000007,5.9,-1.57016988471)) ;
#604=CARTESIAN_POINT('Control Point',(56.6800575977,5.9,-1.57199524768)) ;
#605=CARTESIAN_POINT('Control Point',(56.6600771953,5.9,-1.57336975547)) ;
#606=CARTESIAN_POINT('Control Point',(56.6400383419,5.9,-1.57428915283)) ;
#607=CARTESIAN_POINT('Control Point',(56.6200191689,5.9,-1.57474774122)) ;
#608=CARTESIAN_POINT('Control Point',(56.5999999993,5.9,-1.57474774122)) ;
#610=CARTESIAN_POINT('Line Origine',(-56.6999999996,5.9,-0.785084942356)) ;
#614=CARTESIAN_POINT('Vertex',(-56.6999999996,5.9,-1.57016988471)) ;
#618=CARTESIAN_POINT('Control Point',(-56.6999999996,5.9,-1.57016988471)) ;
#619=CARTESIAN_POINT('Control Point',(-56.6800575977,5.9,-1.57199524754)) ;
#620=CARTESIAN_POINT('Control Point',(-56.6600771801,5.9,-1.57336955253)) ;
#621=CARTESIAN_POINT('Control Point',(-56.6400383415,5.9,-1.57428894578)) ;
#622=CARTESIAN_POINT('Control Point',(-56.6200191697,5.9,-1.57474774122)) ;
#623=CARTESIAN_POINT('Control Point',(-56.6,5.9,-1.57474774122)) ;
#636=CARTESIAN_POINT('Axis2P3D Location',(-56.7,-2.9,-0.65)) ;
#641=CARTESIAN_POINT('Line Origine',(-59.7,-2.9,-0.650000000373)) ;
#645=CARTESIAN_POINT('Vertex',(-59.7,-2.9,-1.30000000037)) ;
#649=CARTESIAN_POINT('Control Point',(-59.7,-2.9,-1.30000000037)) ;
#650=CARTESIAN_POINT('Control Point',(-59.7,-3.84484906938,-1.30000000037)) ;
#651=CARTESIAN_POINT('Control Point',(-59.32845367,-4.79292869832,-1.33307482968)) ;
#652=CARTESIAN_POINT('Control Point',(-58.5790545619,-5.53380747824,-1.39922617681)) ;
#653=CARTESIAN_POINT('Control Point',(-57.6389219792,-5.89999999991,-1.48422877303)) ;
#654=CARTESIAN_POINT('Control Point',(-56.7000000003,-5.9,-1.57016988434)) ;
#663=CARTESIAN_POINT('Axis2P3D Location',(-59.7,-2.9,0.)) ;
#668=CARTESIAN_POINT('Line Origine',(-59.7,2.90000000075,-0.650000000373)) ;
#672=CARTESIAN_POINT('Vertex',(-59.7,2.90000000075,-1.30000000075)) ;
#675=CARTESIAN_POINT('Line Origine',(-59.7,3.72529118664E-10,-1.30000000075)) ;
#687=CARTESIAN_POINT('Axis2P3D Location',(-56.7,2.9,-0.65)) ;
#693=CARTESIAN_POINT('Control Point',(-59.7,2.90000000001,-1.30000000037)) ;
#694=CARTESIAN_POINT('Control Point',(-59.7,3.84484690638,-1.30000000037)) ;
#695=CARTESIAN_POINT('Control Point',(-59.3284554266,4.79293142002,-1.33307199721)) ;
#696=CARTESIAN_POINT('Control Point',(-58.5790494414,5.53381013746,-1.39922704883)) ;
#697=CARTESIAN_POINT('Control Point',(-57.6389197508,5.89999999994,-1.48422897558)) ;
#698=CARTESIAN_POINT('Control Point',(-56.7000000002,5.9,-1.57016988434)) ;
#707=CARTESIAN_POINT('Axis2P3D Location',(56.6,2.9,-9.81718000031)) ;
#712=CARTESIAN_POINT('Axis2P3D Location',(56.6,2.9,-1.57474774266)) ;
#724=CARTESIAN_POINT('Axis2P3D Location',(59.6,5.9,0.)) ;
#729=CARTESIAN_POINT('Line Origine',(59.6,2.9,-32.4348738715)) ;
#733=CARTESIAN_POINT('Vertex',(59.6,2.9,-63.2949999999)) ;
#736=CARTESIAN_POINT('Line Origine',(59.6,-3.72528674575E-10,-63.2949999999)) ;
#740=CARTESIAN_POINT('Vertex',(59.6,-2.90000000075,-63.2949999999)) ;
#743=CARTESIAN_POINT('Line Origine',(59.6,-2.90000000075,-32.4348738706)) ;
#755=CARTESIAN_POINT('Axis2P3D Location',(56.6,-2.9,-32.1475)) ;
#760=CARTESIAN_POINT('Axis2P3D Location',(56.6,-2.9,-63.294999999)) ;
#772=CARTESIAN_POINT('Axis2P3D Location',(0.,-4.9,-63.295)) ;
#777=CARTESIAN_POINT('Axis2P3D Location',(56.5999999996,-4.9,-63.295)) ;
#781=CARTESIAN_POINT('Vertex',(56.5999999996,-4.9,-64.295)) ;
#784=CARTESIAN_POINT('Line Origine',(0.,-4.9,-64.295)) ;
#788=CARTESIAN_POINT('Vertex',(-56.5999999996,-4.90000000037,-64.295)) ;
#791=CARTESIAN_POINT('Axis2P3D Location',(-56.5999999996,-4.9,-63.295)) ;
#803=CARTESIAN_POINT('Axis2P3D Location',(-56.6,-2.9,-32.1475)) ;
#808=CARTESIAN_POINT('Axis2P3D Location',(-56.6,-2.9,-1.57474774033)) ;
#812=CARTESIAN_POINT('Vertex',(-59.6,-2.9,-1.57474774033)) ;
#815=CARTESIAN_POINT('Axis2P3D Location',(-56.6,-2.9,-63.294999999)) ;
#819=CARTESIAN_POINT('Vertex',(-59.6,-2.9,-63.2950000009)) ;
#822=CARTESIAN_POINT('Line Origine',(-59.6,-2.9,-32.1475000009)) ;
#834=CARTESIAN_POINT('Axis2P3D Location',(-56.6,-2.9,-9.81718000031)) ;
#839=CARTESIAN_POINT('Line Origine',(-855106.958316,-2.90000001065,2349221.73478)) ;
#851=CARTESIAN_POINT('Axis2P3D Location',(0.,4.78,-63.495)) ;
#856=CARTESIAN_POINT('Axis2P3D Location',(-57.,4.78,-63.495)) ;
#860=CARTESIAN_POINT('Vertex',(-57.,4.78,-64.995)) ;
#863=CARTESIAN_POINT('Axis2P3D Location',(57.,4.78,-63.495)) ;
#867=CARTESIAN_POINT('Vertex',(57.,4.78,-64.995)) ;
#870=CARTESIAN_POINT('Line Origine',(0.,4.78,-64.995)) ;
#882=CARTESIAN_POINT('Axis2P3D Location',(-57.,3.28,-63.495)) ;
#887=CARTESIAN_POINT('Axis2P3D Location',(-58.5,3.27999999933,-63.495)) ;
#891=CARTESIAN_POINT('Vertex',(-58.5,3.27999999933,-64.995)) ;
#894=CARTESIAN_POINT('Axis2P3D Location',(-57.,3.28,-64.995)) ;
#906=CARTESIAN_POINT('Axis2P3D Location',(-58.5,0.,-63.495)) ;
#911=CARTESIAN_POINT('Axis2P3D Location',(-58.5,-3.27999999933,-63.495)) ;
#915=CARTESIAN_POINT('Vertex',(-58.5,-3.27999999933,-64.995)) ;
#918=CARTESIAN_POINT('Line Origine',(-58.5,0.,-64.995)) ;
#930=CARTESIAN_POINT('Axis2P3D Location',(-57.,-3.28,-63.495)) ;
#935=CARTESIAN_POINT('Axis2P3D Location',(-57.,-4.78,-63.495)) ;
#939=CARTESIAN_POINT('Vertex',(-57.,-4.78,-64.995)) ;
#942=CARTESIAN_POINT('Axis2P3D Location',(-57.,-3.28,-64.995)) ;
#954=CARTESIAN_POINT('Axis2P3D Location',(0.,-4.78,-63.495)) ;
#959=CARTESIAN_POINT('Axis2P3D Location',(57.,-4.78,-63.495)) ;
#963=CARTESIAN_POINT('Vertex',(57.,-4.78,-64.995)) ;
#966=CARTESIAN_POINT('Line Origine',(0.,-4.78,-64.995)) ;
#978=CARTESIAN_POINT('Axis2P3D Location',(57.,-3.28,-63.495)) ;
#983=CARTESIAN_POINT('Axis2P3D Location',(58.5,-3.27999999933,-63.495)) ;
#987=CARTESIAN_POINT('Vertex',(58.5,-3.27999999933,-64.995)) ;
#990=CARTESIAN_POINT('Axis2P3D Location',(57.,-3.28,-64.995)) ;
#1002=CARTESIAN_POINT('Axis2P3D Location',(58.5,0.,-63.495)) ;
#1007=CARTESIAN_POINT('Axis2P3D Location',(58.5,3.27999999933,-63.495)) ;
#1011=CARTESIAN_POINT('Vertex',(58.5,3.27999999933,-64.995)) ;
#1014=CARTESIAN_POINT('Line Origine',(58.5,0.,-64.995)) ;
#1026=CARTESIAN_POINT('Axis2P3D Location',(57.,3.28,-63.495)) ;
#1031=CARTESIAN_POINT('Axis2P3D Location',(57.,3.28,-64.995)) ;
#1043=CARTESIAN_POINT('Axis2P3D Location',(-56.6,2.9,-32.1475)) ;
#1048=CARTESIAN_POINT('Axis2P3D Location',(-56.6,2.9,-1.57474774033)) ;
#1052=CARTESIAN_POINT('Vertex',(-59.6,2.9,-1.57474774033)) ;
#1055=CARTESIAN_POINT('Line Origine',(-59.6,2.9,-32.1475000009)) ;
#1059=CARTESIAN_POINT('Vertex',(-59.6,2.90000000037,-63.2950000009)) ;
#1062=CARTESIAN_POINT('Axis2P3D Location',(-56.6,2.9,-63.2950000009)) ;
#1074=CARTESIAN_POINT('Axis2P3D Location',(0.,4.9,-63.295)) ;
#1079=CARTESIAN_POINT('Axis2P3D Location',(-56.5999999996,4.9,-63.295)) ;
#1083=CARTESIAN_POINT('Vertex',(-56.5999999996,4.9,-64.295)) ;
#1086=CARTESIAN_POINT('Line Origine',(0.,4.9,-64.295)) ;
#1090=CARTESIAN_POINT('Vertex',(56.5999999996,4.90000000037,-64.295)) ;
#1093=CARTESIAN_POINT('Axis2P3D Location',(56.5999999996,4.9,-63.295)) ;
#1105=CARTESIAN_POINT('Axis2P3D Location',(56.6,2.9,-32.1475)) ;
#1110=CARTESIAN_POINT('Axis2P3D Location',(56.6,2.9,-63.294999999)) ;
#1122=CARTESIAN_POINT('Axis2P3D Location',(-56.6,2.89999999999,-9.81718000035)) ;
#1127=CARTESIAN_POINT('Line Origine',(-855106.958316,2.9000016485,2349221.73478)) ;
#1139=CARTESIAN_POINT('Axis2P3D Location',(-59.7,-6.2172489379E-15,-1.3)) ;
#1144=CARTESIAN_POINT('Line Origine',(-59.6000000003,-6.2172489379E-15,-1.5747477411)) ;
#1156=CARTESIAN_POINT('Axis2P3D Location',(58.6,0.,-63.295)) ;
#1161=CARTESIAN_POINT('Axis2P3D Location',(58.6,2.90000000037,-63.295)) ;
#1165=CARTESIAN_POINT('Vertex',(58.6,2.90000000037,-64.295)) ;
#1168=CARTESIAN_POINT('Line Origine',(58.6,0.,-64.295)) ;
#1172=CARTESIAN_POINT('Vertex',(58.6,-2.90000000037,-64.295)) ;
#1175=CARTESIAN_POINT('Axis2P3D Location',(58.6,-2.90000000037,-63.295)) ;
#1187=CARTESIAN_POINT('Axis2P3D Location',(56.6,-2.9,-63.295)) ;
#1192=CARTESIAN_POINT('Axis2P3D Location',(56.6,-2.9,-64.295)) ;
#1204=CARTESIAN_POINT('Axis2P3D Location',(0.,0.,-64.295)) ;
#1209=CARTESIAN_POINT('Axis2P3D Location',(56.5999999997,2.90000000041,-64.295)) ;
#1214=CARTESIAN_POINT('Axis2P3D Location',(-56.5999999997,2.90000000041,-64.295)) ;
#1218=CARTESIAN_POINT('Vertex',(-58.5999999996,2.90000000037,-64.295)) ;
#1221=CARTESIAN_POINT('Line Origine',(-58.5999999996,0.,-64.295)) ;
#1225=CARTESIAN_POINT('Vertex',(-58.5999999996,-2.90000000037,-64.295)) ;
#1228=CARTESIAN_POINT('Axis2P3D Location',(-56.5999999997,-2.90000000041,-64.295)) ;
#1244=CARTESIAN_POINT('Axis2P3D Location',(-56.6,-2.9,-63.295)) ;
#1249=CARTESIAN_POINT('Axis2P3D Location',(-58.6,-2.9,-63.295)) ;
#1261=CARTESIAN_POINT('Axis2P3D Location',(-59.6,-5.9,0.)) ;
#1266=CARTESIAN_POINT('Line Origine',(-59.6,3.72528674575E-10,-63.2949999999)) ;
#1278=CARTESIAN_POINT('Axis2P3D Location',(0.,0.,-64.995)) ;
#1294=CARTESIAN_POINT('Axis2P3D Location',(-56.6,2.9,-63.295)) ;
#1299=CARTESIAN_POINT('Axis2P3D Location',(-58.6,2.9,-63.295)) ;
#1311=CARTESIAN_POINT('Axis2P3D Location',(56.6,2.9,-63.295)) ;
#1323=CARTESIAN_POINT('Axis2P3D Location',(-58.6,0.,-63.295)) ;
#1337=CARTESIAN_POINT('Line Origine',(53.3354301453,-11.852645874,-63.4949999992)) ;
#1341=CARTESIAN_POINT('Limit',(43.4127883911,-11.852645874,-63.4949999992)) ;
#1342=CARTESIAN_POINT('Limit',(63.2580718994,-11.852645874,-63.4949999992)) ;
#1345=CARTESIAN_POINT('Line Origine',(63.2580718994,1.47204589844,-63.4949999992)) ;
#1349=CARTESIAN_POINT('Limit',(63.2580718994,-11.852645874,-63.4949999992)) ;
#1350=CARTESIAN_POINT('Limit',(63.2580718994,14.7967376709,-63.4949999992)) ;
#1353=CARTESIAN_POINT('Line Origine',(53.3354301453,14.7967376709,-63.4949999992)) ;
#1357=CARTESIAN_POINT('Limit',(63.2580718994,14.7967376709,-63.4949999992)) ;
#1358=CARTESIAN_POINT('Limit',(43.4127883911,14.7967376709,-63.4949999992)) ;
#1361=CARTESIAN_POINT('Line Origine',(43.4127883911,1.47204589844,-63.4949999992)) ;
#1365=CARTESIAN_POINT('Limit',(43.4127883911,14.7967376709,-63.4949999992)) ;
#1366=CARTESIAN_POINT('Limit',(43.4127883911,-11.852645874,-63.4949999992)) ;
#1378=CARTESIAN_POINT('Axis2P3D Location',(0.,0.,0.)) ;
#1388=CARTESIAN_POINT('Axis2P3D Location',(0.,0.,0.)) ;
#27=SURFACE_STYLE_USAGE(.POSITIVE.,#26) ;
#26=SURFACE_SIDE_STYLE(' ',(#25)) ;
#25=SURFACE_STYLE_FILL_AREA(#24) ;
#1369=COMPOSITE_CURVE('Sketch.1',(#1344,#1352,#1360,#1368),.U.) ;
#1344=COMPOSITE_CURVE_SEGMENT(.CONTINUOUS.,.T.,#1343) ;
#1352=COMPOSITE_CURVE_SEGMENT(.CONTINUOUS.,.T.,#1351) ;
#1360=COMPOSITE_CURVE_SEGMENT(.CONTINUOUS.,.T.,#1359) ;
#1368=COMPOSITE_CURVE_SEGMENT(.DISCONTINUOUS.,.T.,#1367) ;
#1343=TRIMMED_CURVE('',#1340,(#1341),(#1342),.T.,.CARTESIAN.) ;
#1351=TRIMMED_CURVE('',#1348,(#1349),(#1350),.F.,.CARTESIAN.) ;
#1359=TRIMMED_CURVE('',#1356,(#1357),(#1358),.T.,.CARTESIAN.) ;
#1367=TRIMMED_CURVE('',#1364,(#1365),(#1366),.F.,.CARTESIAN.) ;
#1336=SHAPE_REPRESENTATION_RELATIONSHIP(' ',' ',#19,#1335) ;
#1377=SHAPE_REPRESENTATION_RELATIONSHIP(' ',' ',#19,#1375) ;
#18=AXIS2_PLACEMENT_3D(' ',#17,$,$) ;
#34=AXIS2_PLACEMENT_3D('Plane Axis2P3D',#31,#32,#33) ;
#74=AXIS2_PLACEMENT_3D('Cylinder Axis2P3D',#71,#72,#73) ;
#87=AXIS2_PLACEMENT_3D('Circle Axis2P3D',#85,#86,$) ;
#108=AXIS2_PLACEMENT_3D('Plane Axis2P3D',#105,#106,#107) ;
#167=AXIS2_PLACEMENT_3D('Circle Axis2P3D',#165,#166,$) ;
#181=AXIS2_PLACEMENT_3D('Circle Axis2P3D',#179,#180,$) ;
#205=AXIS2_PLACEMENT_3D('Circle Axis2P3D',#203,#204,$) ;
#217=AXIS2_PLACEMENT_3D('Circle Axis2P3D',#215,#216,$) ;
#231=AXIS2_PLACEMENT_3D('Circle Axis2P3D',#229,#230,$) ;
#248=AXIS2_PLACEMENT_3D('Cylinder Axis2P3D',#245,#246,#247) ;
#275=AXIS2_PLACEMENT_3D('Plane Axis2P3D',#272,#273,#274) ;
#306=AXIS2_PLACEMENT_3D('Plane Axis2P3D',#303,#304,#305) ;
#368=AXIS2_PLACEMENT_3D('Cone Axis2P3D',#365,#366,#367) ;
#372=AXIS2_PLACEMENT_3D('Circle Axis2P3D',#370,#371,$) ;
#385=AXIS2_PLACEMENT_3D('Plane Axis2P3D',#382,#383,#384) ;
#416=AXIS2_PLACEMENT_3D('Cylinder Axis2P3D',#413,#414,#415) ;
#427=AXIS2_PLACEMENT_3D('Circle Axis2P3D',#425,#426,$) ;
#440=AXIS2_PLACEMENT_3D('Plane Axis2P3D',#437,#438,#439) ;
#464=AXIS2_PLACEMENT_3D('Cylinder Axis2P3D',#461,#462,#463) ;
#475=AXIS2_PLACEMENT_3D('Circle Axis2P3D',#473,#474,$) ;
#488=AXIS2_PLACEMENT_3D('Plane Axis2P3D',#485,#486,#487) ;
#512=AXIS2_PLACEMENT_3D('Cylinder Axis2P3D',#509,#510,#511) ;
#523=AXIS2_PLACEMENT_3D('Circle Axis2P3D',#521,#522,$) ;
#536=AXIS2_PLACEMENT_3D('Plane Axis2P3D',#533,#534,#535) ;
#560=AXIS2_PLACEMENT_3D('Cylinder Axis2P3D',#557,#558,#559) ;
#564=AXIS2_PLACEMENT_3D('Circle Axis2P3D',#562,#563,$) ;
#577=AXIS2_PLACEMENT_3D('Plane Axis2P3D',#574,#575,#576) ;
#639=AXIS2_PLACEMENT_3D('Cylinder Axis2P3D',#636,#637,#638) ;
#666=AXIS2_PLACEMENT_3D('Plane Axis2P3D',#663,#664,#665) ;
#690=AXIS2_PLACEMENT_3D('Cylinder Axis2P3D',#687,#688,#689) ;
#710=AXIS2_PLACEMENT_3D('Cone Axis2P3D',#707,#708,#709) ;
#714=AXIS2_PLACEMENT_3D('Circle Axis2P3D',#712,#713,$) ;
#727=AXIS2_PLACEMENT_3D('Plane Axis2P3D',#724,#725,#726) ;
#758=AXIS2_PLACEMENT_3D('Cylinder Axis2P3D',#755,#756,#757) ;
#762=AXIS2_PLACEMENT_3D('Circle Axis2P3D',#760,#761,$) ;
#775=AXIS2_PLACEMENT_3D('Cylinder Axis2P3D',#772,#773,#774) ;
#779=AXIS2_PLACEMENT_3D('Circle Axis2P3D',#777,#778,$) ;
#793=AXIS2_PLACEMENT_3D('Circle Axis2P3D',#791,#792,$) ;
#806=AXIS2_PLACEMENT_3D('Cylinder Axis2P3D',#803,#804,#805) ;
#810=AXIS2_PLACEMENT_3D('Circle Axis2P3D',#808,#809,$) ;
#817=AXIS2_PLACEMENT_3D('Circle Axis2P3D',#815,#816,$) ;
#837=AXIS2_PLACEMENT_3D('Cone Axis2P3D',#834,#835,#836) ;
#854=AXIS2_PLACEMENT_3D('Cylinder Axis2P3D',#851,#852,#853) ;
#858=AXIS2_PLACEMENT_3D('Circle Axis2P3D',#856,#857,$) ;
#865=AXIS2_PLACEMENT_3D('Circle Axis2P3D',#863,#864,$) ;
#885=AXIS2_PLACEMENT_3D('Torus Axis2P3D',#882,#883,#884) ;
#889=AXIS2_PLACEMENT_3D('Circle Axis2P3D',#887,#888,$) ;
#896=AXIS2_PLACEMENT_3D('Circle Axis2P3D',#894,#895,$) ;
#909=AXIS2_PLACEMENT_3D('Cylinder Axis2P3D',#906,#907,#908) ;
#913=AXIS2_PLACEMENT_3D('Circle Axis2P3D',#911,#912,$) ;
#933=AXIS2_PLACEMENT_3D('Torus Axis2P3D',#930,#931,#932) ;
#937=AXIS2_PLACEMENT_3D('Circle Axis2P3D',#935,#936,$) ;
#944=AXIS2_PLACEMENT_3D('Circle Axis2P3D',#942,#943,$) ;
#957=AXIS2_PLACEMENT_3D('Cylinder Axis2P3D',#954,#955,#956) ;
#961=AXIS2_PLACEMENT_3D('Circle Axis2P3D',#959,#960,$) ;
#981=AXIS2_PLACEMENT_3D('Torus Axis2P3D',#978,#979,#980) ;
#985=AXIS2_PLACEMENT_3D('Circle Axis2P3D',#983,#984,$) ;
#992=AXIS2_PLACEMENT_3D('Circle Axis2P3D',#990,#991,$) ;
#1005=AXIS2_PLACEMENT_3D('Cylinder Axis2P3D',#1002,#1003,#1004) ;
#1009=AXIS2_PLACEMENT_3D('Circle Axis2P3D',#1007,#1008,$) ;
#1029=AXIS2_PLACEMENT_3D('Torus Axis2P3D',#1026,#1027,#1028) ;
#1033=AXIS2_PLACEMENT_3D('Circle Axis2P3D',#1031,#1032,$) ;
#1046=AXIS2_PLACEMENT_3D('Cylinder Axis2P3D',#1043,#1044,#1045) ;
#1050=AXIS2_PLACEMENT_3D('Circle Axis2P3D',#1048,#1049,$) ;
#1064=AXIS2_PLACEMENT_3D('Circle Axis2P3D',#1062,#1063,$) ;
#1077=AXIS2_PLACEMENT_3D('Cylinder Axis2P3D',#1074,#1075,#1076) ;
#1081=AXIS2_PLACEMENT_3D('Circle Axis2P3D',#1079,#1080,$) ;
#1095=AXIS2_PLACEMENT_3D('Circle Axis2P3D',#1093,#1094,$) ;
#1108=AXIS2_PLACEMENT_3D('Cylinder Axis2P3D',#1105,#1106,#1107) ;
#1112=AXIS2_PLACEMENT_3D('Circle Axis2P3D',#1110,#1111,$) ;
#1125=AXIS2_PLACEMENT_3D('Cone Axis2P3D',#1122,#1123,#1124) ;
#1142=AXIS2_PLACEMENT_3D('Plane Axis2P3D',#1139,#1140,#1141) ;
#1159=AXIS2_PLACEMENT_3D('Cylinder Axis2P3D',#1156,#1157,#1158) ;
#1163=AXIS2_PLACEMENT_3D('Circle Axis2P3D',#1161,#1162,$) ;
#1177=AXIS2_PLACEMENT_3D('Circle Axis2P3D',#1175,#1176,$) ;
#1190=AXIS2_PLACEMENT_3D('Torus Axis2P3D',#1187,#1188,#1189) ;
#1194=AXIS2_PLACEMENT_3D('Circle Axis2P3D',#1192,#1193,$) ;
#1207=AXIS2_PLACEMENT_3D('Plane Axis2P3D',#1204,#1205,#1206) ;
#1211=AXIS2_PLACEMENT_3D('Circle Axis2P3D',#1209,#1210,$) ;
#1216=AXIS2_PLACEMENT_3D('Circle Axis2P3D',#1214,#1215,$) ;
#1230=AXIS2_PLACEMENT_3D('Circle Axis2P3D',#1228,#1229,$) ;
#1247=AXIS2_PLACEMENT_3D('Torus Axis2P3D',#1244,#1245,#1246) ;
#1251=AXIS2_PLACEMENT_3D('Circle Axis2P3D',#1249,#1250,$) ;
#1264=AXIS2_PLACEMENT_3D('Plane Axis2P3D',#1261,#1262,#1263) ;
#1281=AXIS2_PLACEMENT_3D('Plane Axis2P3D',#1278,#1279,#1280) ;
#1297=AXIS2_PLACEMENT_3D('Torus Axis2P3D',#1294,#1295,#1296) ;
#1301=AXIS2_PLACEMENT_3D('Circle Axis2P3D',#1299,#1300,$) ;
#1314=AXIS2_PLACEMENT_3D('Torus Axis2P3D',#1311,#1312,#1313) ;
#1326=AXIS2_PLACEMENT_3D('Cylinder Axis2P3D',#1323,#1324,#1325) ;
#1381=AXIS2_PLACEMENT_3D('Absolute Axis System',#1378,#1379,#1380) ;
#1391=AXIS2_PLACEMENT_3D('Absolute Axis System',#1388,#1389,#1390) ;
#88=CIRCLE('generated circle',#87,3.) ;
#168=CIRCLE('generated circle',#167,2.99999999676) ;
#182=CIRCLE('generated circle',#181,2.99999999676) ;
#206=CIRCLE('generated circle',#205,2.99999999994) ;
#218=CIRCLE('generated circle',#217,2.99999999994) ;
#232=CIRCLE('generated circle',#231,2.99999999994) ;
#373=CIRCLE('generated circle',#372,2.99999999967) ;
#428=CIRCLE('generated circle',#427,3.) ;
#476=CIRCLE('generated circle',#475,3.) ;
#524=CIRCLE('generated circle',#523,3.) ;
#565=CIRCLE('generated circle',#564,3.) ;
#715=CIRCLE('generated circle',#714,2.99999999974) ;
#763=CIRCLE('generated circle',#762,3.) ;
#780=CIRCLE('generated circle',#779,1.) ;
#794=CIRCLE('generated circle',#793,1.) ;
#811=CIRCLE('generated circle',#810,3.) ;
#818=CIRCLE('generated circle',#817,3.) ;
#859=CIRCLE('generated circle',#858,1.5) ;
#866=CIRCLE('generated circle',#865,1.5) ;
#890=CIRCLE('generated circle',#889,1.5) ;
#897=CIRCLE('generated circle',#896,1.5) ;
#914=CIRCLE('generated circle',#913,1.5) ;
#938=CIRCLE('generated circle',#937,1.5) ;
#945=CIRCLE('generated circle',#944,1.5) ;
#962=CIRCLE('generated circle',#961,1.5) ;
#986=CIRCLE('generated circle',#985,1.5) ;
#993=CIRCLE('generated circle',#992,1.5) ;
#1010=CIRCLE('generated circle',#1009,1.5) ;
#1034=CIRCLE('generated circle',#1033,1.5) ;
#1051=CIRCLE('generated circle',#1050,3.) ;
#1065=CIRCLE('generated circle',#1064,3.) ;
#1082=CIRCLE('generated circle',#1081,1.) ;
#1096=CIRCLE('generated circle',#1095,1.) ;
#1113=CIRCLE('generated circle',#1112,3.) ;
#1164=CIRCLE('generated circle',#1163,1.) ;
#1178=CIRCLE('generated circle',#1177,1.) ;
#1195=CIRCLE('generated circle',#1194,2.) ;
#1212=CIRCLE('generated circle',#1211,1.99999999996) ;
#1217=CIRCLE('generated circle',#1216,1.99999999996) ;
#1231=CIRCLE('generated circle',#1230,1.99999999996) ;
#1252=CIRCLE('generated circle',#1251,1.) ;
#1302=CIRCLE('generated circle',#1301,1.) ;
#369=CONICAL_SURFACE('Cone',#368,0.,0.349065850398) ;
#711=CONICAL_SURFACE('Cone',#710,0.,0.349065850399) ;
#838=CONICAL_SURFACE('Cone',#837,0.,0.349065850399) ;
#1126=CONICAL_SURFACE('Cone',#1125,0.,0.349065850397) ;
#75=CYLINDRICAL_SURFACE('generated cylinder',#74,3.) ;
#249=CYLINDRICAL_SURFACE('generated cylinder',#248,3.) ;
#417=CYLINDRICAL_SURFACE('generated cylinder',#416,3.) ;
#465=CYLINDRICAL_SURFACE('generated cylinder',#464,3.) ;
#513=CYLINDRICAL_SURFACE('generated cylinder',#512,3.) ;
#561=CYLINDRICAL_SURFACE('generated cylinder',#560,3.) ;
#640=CYLINDRICAL_SURFACE('generated cylinder',#639,3.) ;
#691=CYLINDRICAL_SURFACE('generated cylinder',#690,3.) ;
#759=CYLINDRICAL_SURFACE('generated cylinder',#758,3.) ;
#776=CYLINDRICAL_SURFACE('generated cylinder',#775,1.) ;
#807=CYLINDRICAL_SURFACE('generated cylinder',#806,3.) ;
#855=CYLINDRICAL_SURFACE('generated cylinder',#854,1.5) ;
#910=CYLINDRICAL_SURFACE('generated cylinder',#909,1.5) ;
#958=CYLINDRICAL_SURFACE('generated cylinder',#957,1.5) ;
#1006=CYLINDRICAL_SURFACE('generated cylinder',#1005,1.5) ;
#1047=CYLINDRICAL_SURFACE('generated cylinder',#1046,3.) ;
#1078=CYLINDRICAL_SURFACE('generated cylinder',#1077,1.) ;
#1109=CYLINDRICAL_SURFACE('generated cylinder',#1108,3.) ;
#1160=CYLINDRICAL_SURFACE('generated cylinder',#1159,1.) ;
#1327=CYLINDRICAL_SURFACE('generated cylinder',#1326,1.) ;
#39=LINE('Line',#36,#38) ;
#48=LINE('Line',#45,#47) ;
#55=LINE('Line',#52,#54) ;
#62=LINE('Line',#59,#61) ;
#79=LINE('Line',#76,#78) ;
#113=LINE('Line',#110,#112) ;
#138=LINE('Line',#135,#137) ;
#161=LINE('Line',#158,#160) ;
#175=LINE('Line',#172,#174) ;
#197=LINE('Line',#194,#196) ;
#211=LINE('Line',#208,#210) ;
#225=LINE('Line',#222,#224) ;
#253=LINE('Line',#250,#252) ;
#280=LINE('Line',#277,#279) ;
#287=LINE('Line',#284,#286) ;
#294=LINE('Line',#291,#293) ;
#311=LINE('Line',#308,#310) ;
#328=LINE('Line',#325,#327) ;
#335=LINE('Line',#332,#334) ;
#342=LINE('Line',#339,#341) ;
#390=LINE('Line',#387,#389) ;
#397=LINE('Line',#394,#396) ;
#404=LINE('Line',#401,#403) ;
#421=LINE('Line',#418,#420) ;
#445=LINE('Line',#442,#444) ;
#452=LINE('Line',#449,#451) ;
#469=LINE('Line',#466,#468) ;
#493=LINE('Line',#490,#492) ;
#500=LINE('Line',#497,#499) ;
#517=LINE('Line',#514,#516) ;
#541=LINE('Line',#538,#540) ;
#548=LINE('Line',#545,#547) ;
#582=LINE('Line',#579,#581) ;
#591=LINE('Line',#588,#590) ;
#598=LINE('Line',#595,#597) ;
#613=LINE('Line',#610,#612) ;
#644=LINE('Line',#641,#643) ;
#671=LINE('Line',#668,#670) ;
#678=LINE('Line',#675,#677) ;
#732=LINE('Line',#729,#731) ;
#739=LINE('Line',#736,#738) ;
#746=LINE('Line',#743,#745) ;
#787=LINE('Line',#784,#786) ;
#825=LINE('Line',#822,#824) ;
#842=LINE('Line',#839,#841) ;
#873=LINE('Line',#870,#872) ;
#921=LINE('Line',#918,#920) ;
#969=LINE('Line',#966,#968) ;
#1017=LINE('Line',#1014,#1016) ;
#1058=LINE('Line',#1055,#1057) ;
#1089=LINE('Line',#1086,#1088) ;
#1130=LINE('Line',#1127,#1129) ;
#1147=LINE('Line',#1144,#1146) ;
#1171=LINE('Line',#1168,#1170) ;
#1224=LINE('Line',#1221,#1223) ;
#1269=LINE('Line',#1266,#1268) ;
#1340=LINE('Line',#1337,#1339) ;
#1348=LINE('Line',#1345,#1347) ;
#1356=LINE('Line',#1353,#1355) ;
#1364=LINE('Line',#1361,#1363) ;
#35=PLANE('',#34) ;
#109=PLANE('',#108) ;
#276=PLANE('',#275) ;
#307=PLANE('',#306) ;
#386=PLANE('',#385) ;
#441=PLANE('',#440) ;
#489=PLANE('',#488) ;
#537=PLANE('',#536) ;
#578=PLANE('',#577) ;
#667=PLANE('',#666) ;
#728=PLANE('',#727) ;
#1143=PLANE('',#1142) ;
#1208=PLANE('',#1207) ;
#1265=PLANE('',#1264) ;
#1282=PLANE('',#1281) ;
#886=TOROIDAL_SURFACE('homeo Torus',#885,1.5,1.5) ;
#934=TOROIDAL_SURFACE('homeo Torus',#933,1.5,1.5) ;
#982=TOROIDAL_SURFACE('homeo Torus',#981,1.5,1.5) ;
#1030=TOROIDAL_SURFACE('homeo Torus',#1029,1.5,1.5) ;
#1191=TOROIDAL_SURFACE('homeo Torus',#1190,2.,1.) ;
#1248=TOROIDAL_SURFACE('homeo Torus',#1247,2.,1.) ;
#1298=TOROIDAL_SURFACE('homeo Torus',#1297,2.,1.) ;
#1315=TOROIDAL_SURFACE('homeo Torus',#1314,2.,1.) ;
#44=EDGE_CURVE('',#41,#43,#39,.T.) ;
#51=EDGE_CURVE('',#41,#50,#48,.F.) ;
#58=EDGE_CURVE('',#50,#57,#55,.T.) ;
#63=EDGE_CURVE('',#57,#43,#62,.T.) ;
#84=EDGE_CURVE('',#81,#83,#79,.T.) ;
#89=EDGE_CURVE('',#83,#41,#88,.T.) ;
#97=EDGE_CURVE('',#81,#43,#90,.F.) ;
#118=EDGE_CURVE('',#115,#117,#113,.F.) ;
#134=EDGE_CURVE('',#133,#117,#119,.T.) ;
#141=EDGE_CURVE('',#133,#140,#138,.F.) ;
#157=EDGE_CURVE('',#156,#140,#142,.T.) ;
#164=EDGE_CURVE('',#156,#163,#161,.F.) ;
#171=EDGE_CURVE('',#170,#163,#168,.F.) ;
#178=EDGE_CURVE('',#170,#177,#175,.F.) ;
#183=EDGE_CURVE('',#115,#177,#182,.F.) ;
#202=EDGE_CURVE('',#199,#201,#197,.F.) ;
#207=EDGE_CURVE('',#50,#199,#206,.T.) ;
#214=EDGE_CURVE('',#213,#83,#211,.F.) ;
#221=EDGE_CURVE('',#220,#213,#218,.T.) ;
#228=EDGE_CURVE('',#227,#220,#225,.F.) ;
#233=EDGE_CURVE('',#201,#227,#232,.T.) ;
#256=EDGE_CURVE('',#199,#255,#253,.F.) ;
#264=EDGE_CURVE('',#57,#255,#257,.T.) ;
#283=EDGE_CURVE('',#57,#282,#280,.T.) ;
#290=EDGE_CURVE('',#282,#289,#287,.F.) ;
#295=EDGE_CURVE('',#43,#289,#294,.T.) ;
#314=EDGE_CURVE('',#213,#313,#311,.T.) ;
#324=EDGE_CURVE('',#323,#81,#315,.F.) ;
#331=EDGE_CURVE('',#330,#323,#328,.F.) ;
#338=EDGE_CURVE('',#337,#330,#335,.F.) ;
#345=EDGE_CURVE('',#337,#344,#342,.F.) ;
#353=EDGE_CURVE('',#313,#344,#346,.T.) ;
#374=EDGE_CURVE('',#289,#323,#373,.F.) ;
#393=EDGE_CURVE('',#117,#392,#390,.T.) ;
#400=EDGE_CURVE('',#115,#399,#397,.T.) ;
#405=EDGE_CURVE('',#392,#399,#404,.F.) ;
#424=EDGE_CURVE('',#133,#423,#421,.T.) ;
#429=EDGE_CURVE('',#423,#392,#428,.T.) ;
#448=EDGE_CURVE('',#140,#447,#445,.T.) ;
#453=EDGE_CURVE('',#447,#423,#452,.F.) ;
#472=EDGE_CURVE('',#156,#471,#469,.T.) ;
#477=EDGE_CURVE('',#471,#447,#476,.T.) ;
#496=EDGE_CURVE('',#163,#495,#493,.T.) ;
#501=EDGE_CURVE('',#495,#471,#500,.F.) ;
#520=EDGE_CURVE('',#170,#519,#517,.T.) ;
#525=EDGE_CURVE('',#519,#495,#524,.T.) ;
#544=EDGE_CURVE('',#177,#543,#541,.T.) ;
#549=EDGE_CURVE('',#543,#519,#548,.F.) ;
#566=EDGE_CURVE('',#399,#543,#565,.T.) ;
#587=EDGE_CURVE('',#584,#586,#582,.F.) ;
#594=EDGE_CURVE('',#593,#584,#591,.F.) ;
#601=EDGE_CURVE('',#593,#600,#598,.F.) ;
#609=EDGE_CURVE('',#255,#600,#602,.T.) ;
#616=EDGE_CURVE('',#615,#201,#613,.F.) ;
#624=EDGE_CURVE('',#586,#615,#617,.F.) ;
#647=EDGE_CURVE('',#220,#646,#644,.F.) ;
#655=EDGE_CURVE('',#646,#313,#648,.T.) ;
#674=EDGE_CURVE('',#227,#673,#671,.T.) ;
#679=EDGE_CURVE('',#646,#673,#678,.T.) ;
#699=EDGE_CURVE('',#615,#673,#692,.F.) ;
#716=EDGE_CURVE('',#600,#282,#715,.F.) ;
#735=EDGE_CURVE('',#734,#282,#732,.F.) ;
#742=EDGE_CURVE('',#741,#734,#739,.F.) ;
#747=EDGE_CURVE('',#741,#289,#746,.F.) ;
#764=EDGE_CURVE('',#330,#741,#763,.F.) ;
#783=EDGE_CURVE('',#330,#782,#780,.F.) ;
#790=EDGE_CURVE('',#789,#782,#787,.F.) ;
#795=EDGE_CURVE('',#337,#789,#794,.F.) ;
#814=EDGE_CURVE('',#344,#813,#811,.T.) ;
#821=EDGE_CURVE('',#820,#337,#818,.F.) ;
#826=EDGE_CURVE('',#820,#813,#825,.F.) ;
#843=EDGE_CURVE('',#646,#813,#842,.F.) ;
#862=EDGE_CURVE('',#861,#392,#859,.F.) ;
#869=EDGE_CURVE('',#868,#399,#866,.F.) ;
#874=EDGE_CURVE('',#861,#868,#873,.F.) ;
#893=EDGE_CURVE('',#892,#423,#890,.T.) ;
#898=EDGE_CURVE('',#892,#861,#897,.F.) ;
#917=EDGE_CURVE('',#916,#447,#914,.F.) ;
#922=EDGE_CURVE('',#916,#892,#921,.F.) ;
#941=EDGE_CURVE('',#940,#471,#938,.T.) ;
#946=EDGE_CURVE('',#940,#916,#945,.F.) ;
#965=EDGE_CURVE('',#964,#495,#962,.F.) ;
#970=EDGE_CURVE('',#964,#940,#969,.F.) ;
#989=EDGE_CURVE('',#988,#519,#986,.T.) ;
#994=EDGE_CURVE('',#988,#964,#993,.F.) ;
#1013=EDGE_CURVE('',#1012,#543,#1010,.F.) ;
#1018=EDGE_CURVE('',#1012,#988,#1017,.F.) ;
#1035=EDGE_CURVE('',#868,#1012,#1034,.F.) ;
#1054=EDGE_CURVE('',#1053,#586,#1051,.T.) ;
#1061=EDGE_CURVE('',#1060,#1053,#1058,.F.) ;
#1066=EDGE_CURVE('',#584,#1060,#1065,.F.) ;
#1085=EDGE_CURVE('',#584,#1084,#1082,.F.) ;
#1092=EDGE_CURVE('',#1091,#1084,#1089,.F.) ;
#1097=EDGE_CURVE('',#593,#1091,#1096,.F.) ;
#1114=EDGE_CURVE('',#734,#593,#1113,.F.) ;
#1131=EDGE_CURVE('',#673,#1053,#1130,.F.) ;
#1148=EDGE_CURVE('',#813,#1053,#1147,.F.) ;
#1167=EDGE_CURVE('',#734,#1166,#1164,.F.) ;
#1174=EDGE_CURVE('',#1173,#1166,#1171,.F.) ;
#1179=EDGE_CURVE('',#741,#1173,#1178,.F.) ;
#1196=EDGE_CURVE('',#782,#1173,#1195,.F.) ;
#1213=EDGE_CURVE('',#1166,#1091,#1212,.F.) ;
#1220=EDGE_CURVE('',#1084,#1219,#1217,.F.) ;
#1227=EDGE_CURVE('',#1219,#1226,#1224,.F.) ;
#1232=EDGE_CURVE('',#1226,#789,#1231,.F.) ;
#1253=EDGE_CURVE('',#820,#1226,#1252,.T.) ;
#1270=EDGE_CURVE('',#1060,#820,#1269,.F.) ;
#1303=EDGE_CURVE('',#1060,#1219,#1302,.T.) ;
#1386=CONSTRUCTIVE_GEOMETRY_REPRESENTATION('supplemental geometry',(#1381,#1391),#16) ;
#1376=GEOMETRIC_SET('NONE',(#1369)) ;
#65=ORIENTED_EDGE('',*,*,#44,.F.) ;
#66=ORIENTED_EDGE('',*,*,#51,.T.) ;
#67=ORIENTED_EDGE('',*,*,#58,.T.) ;
#68=ORIENTED_EDGE('',*,*,#63,.T.) ;
#99=ORIENTED_EDGE('',*,*,#84,.T.) ;
#100=ORIENTED_EDGE('',*,*,#89,.T.) ;
#101=ORIENTED_EDGE('',*,*,#44,.T.) ;
#102=ORIENTED_EDGE('',*,*,#97,.F.) ;
#185=ORIENTED_EDGE('',*,*,#118,.T.) ;
#186=ORIENTED_EDGE('',*,*,#134,.F.) ;
#187=ORIENTED_EDGE('',*,*,#141,.T.) ;
#188=ORIENTED_EDGE('',*,*,#157,.F.) ;
#189=ORIENTED_EDGE('',*,*,#164,.T.) ;
#190=ORIENTED_EDGE('',*,*,#171,.F.) ;
#191=ORIENTED_EDGE('',*,*,#178,.T.) ;
#192=ORIENTED_EDGE('',*,*,#183,.F.) ;
#235=ORIENTED_EDGE('',*,*,#202,.F.) ;
#236=ORIENTED_EDGE('',*,*,#207,.F.) ;
#237=ORIENTED_EDGE('',*,*,#51,.F.) ;
#238=ORIENTED_EDGE('',*,*,#89,.F.) ;
#239=ORIENTED_EDGE('',*,*,#214,.F.) ;
#240=ORIENTED_EDGE('',*,*,#221,.F.) ;
#241=ORIENTED_EDGE('',*,*,#228,.F.) ;
#242=ORIENTED_EDGE('',*,*,#233,.F.) ;
#266=ORIENTED_EDGE('',*,*,#58,.F.) ;
#267=ORIENTED_EDGE('',*,*,#207,.T.) ;
#268=ORIENTED_EDGE('',*,*,#256,.T.) ;
#269=ORIENTED_EDGE('',*,*,#264,.F.) ;
#297=ORIENTED_EDGE('',*,*,#283,.T.) ;
#298=ORIENTED_EDGE('',*,*,#290,.T.) ;
#299=ORIENTED_EDGE('',*,*,#295,.F.) ;
#300=ORIENTED_EDGE('',*,*,#63,.F.) ;
#355=ORIENTED_EDGE('',*,*,#314,.F.) ;
#356=ORIENTED_EDGE('',*,*,#214,.T.) ;
#357=ORIENTED_EDGE('',*,*,#84,.F.) ;
#358=ORIENTED_EDGE('',*,*,#324,.F.) ;
#359=ORIENTED_EDGE('',*,*,#331,.F.) ;
#360=ORIENTED_EDGE('',*,*,#338,.F.) ;
#361=ORIENTED_EDGE('',*,*,#345,.T.) ;
#362=ORIENTED_EDGE('',*,*,#353,.F.) ;
#376=ORIENTED_EDGE('',*,*,#324,.T.) ;
#377=ORIENTED_EDGE('',*,*,#97,.T.) ;
#378=ORIENTED_EDGE('',*,*,#295,.T.) ;
#379=ORIENTED_EDGE('',*,*,#374,.T.) ;
#407=ORIENTED_EDGE('',*,*,#393,.F.) ;
#408=ORIENTED_EDGE('',*,*,#118,.F.) ;
#409=ORIENTED_EDGE('',*,*,#400,.T.) ;
#410=ORIENTED_EDGE('',*,*,#405,.F.) ;
#431=ORIENTED_EDGE('',*,*,#424,.F.) ;
#432=ORIENTED_EDGE('',*,*,#134,.T.) ;
#433=ORIENTED_EDGE('',*,*,#393,.T.) ;
#434=ORIENTED_EDGE('',*,*,#429,.F.) ;
#455=ORIENTED_EDGE('',*,*,#448,.F.) ;
#456=ORIENTED_EDGE('',*,*,#141,.F.) ;
#457=ORIENTED_EDGE('',*,*,#424,.T.) ;
#458=ORIENTED_EDGE('',*,*,#453,.F.) ;
#479=ORIENTED_EDGE('',*,*,#472,.F.) ;
#480=ORIENTED_EDGE('',*,*,#157,.T.) ;
#481=ORIENTED_EDGE('',*,*,#448,.T.) ;
#482=ORIENTED_EDGE('',*,*,#477,.F.) ;
#503=ORIENTED_EDGE('',*,*,#496,.F.) ;
#504=ORIENTED_EDGE('',*,*,#164,.F.) ;
#505=ORIENTED_EDGE('',*,*,#472,.T.) ;
#506=ORIENTED_EDGE('',*,*,#501,.F.) ;
#527=ORIENTED_EDGE('',*,*,#520,.F.) ;
#528=ORIENTED_EDGE('',*,*,#171,.T.) ;
#529=ORIENTED_EDGE('',*,*,#496,.T.) ;
#530=ORIENTED_EDGE('',*,*,#525,.F.) ;
#551=ORIENTED_EDGE('',*,*,#544,.F.) ;
#552=ORIENTED_EDGE('',*,*,#178,.F.) ;
#553=ORIENTED_EDGE('',*,*,#520,.T.) ;
#554=ORIENTED_EDGE('',*,*,#549,.F.) ;
#568=ORIENTED_EDGE('',*,*,#400,.F.) ;
#569=ORIENTED_EDGE('',*,*,#183,.T.) ;
#570=ORIENTED_EDGE('',*,*,#544,.T.) ;
#571=ORIENTED_EDGE('',*,*,#566,.F.) ;
#626=ORIENTED_EDGE('',*,*,#587,.F.) ;
#627=ORIENTED_EDGE('',*,*,#594,.F.) ;
#628=ORIENTED_EDGE('',*,*,#601,.T.) ;
#629=ORIENTED_EDGE('',*,*,#609,.F.) ;
#630=ORIENTED_EDGE('',*,*,#256,.F.) ;
#631=ORIENTED_EDGE('',*,*,#202,.T.) ;
#632=ORIENTED_EDGE('',*,*,#616,.F.) ;
#633=ORIENTED_EDGE('',*,*,#624,.F.) ;
#657=ORIENTED_EDGE('',*,*,#647,.F.) ;
#658=ORIENTED_EDGE('',*,*,#221,.T.) ;
#659=ORIENTED_EDGE('',*,*,#314,.T.) ;
#660=ORIENTED_EDGE('',*,*,#655,.F.) ;
#681=ORIENTED_EDGE('',*,*,#674,.F.) ;
#682=ORIENTED_EDGE('',*,*,#228,.T.) ;
#683=ORIENTED_EDGE('',*,*,#647,.T.) ;
#684=ORIENTED_EDGE('',*,*,#679,.T.) ;
#701=ORIENTED_EDGE('',*,*,#616,.T.) ;
#702=ORIENTED_EDGE('',*,*,#233,.T.) ;
#703=ORIENTED_EDGE('',*,*,#674,.T.) ;
#704=ORIENTED_EDGE('',*,*,#699,.F.) ;
#718=ORIENTED_EDGE('',*,*,#264,.T.) ;
#719=ORIENTED_EDGE('',*,*,#609,.T.) ;
#720=ORIENTED_EDGE('',*,*,#716,.T.) ;
#721=ORIENTED_EDGE('',*,*,#283,.F.) ;
#749=ORIENTED_EDGE('',*,*,#290,.F.) ;
#750=ORIENTED_EDGE('',*,*,#735,.F.) ;
#751=ORIENTED_EDGE('',*,*,#742,.F.) ;
#752=ORIENTED_EDGE('',*,*,#747,.T.) ;
#766=ORIENTED_EDGE('',*,*,#374,.F.) ;
#767=ORIENTED_EDGE('',*,*,#747,.F.) ;
#768=ORIENTED_EDGE('',*,*,#764,.F.) ;
#769=ORIENTED_EDGE('',*,*,#331,.T.) ;
#797=ORIENTED_EDGE('',*,*,#338,.T.) ;
#798=ORIENTED_EDGE('',*,*,#783,.T.) ;
#799=ORIENTED_EDGE('',*,*,#790,.F.) ;
#800=ORIENTED_EDGE('',*,*,#795,.F.) ;
#828=ORIENTED_EDGE('',*,*,#814,.F.) ;
#829=ORIENTED_EDGE('',*,*,#345,.F.) ;
#830=ORIENTED_EDGE('',*,*,#821,.F.) ;
#831=ORIENTED_EDGE('',*,*,#826,.T.) ;
#845=ORIENTED_EDGE('',*,*,#655,.T.) ;
#846=ORIENTED_EDGE('',*,*,#353,.T.) ;
#847=ORIENTED_EDGE('',*,*,#814,.T.) ;
#848=ORIENTED_EDGE('',*,*,#843,.F.) ;
#876=ORIENTED_EDGE('',*,*,#862,.T.) ;
#877=ORIENTED_EDGE('',*,*,#405,.T.) ;
#878=ORIENTED_EDGE('',*,*,#869,.F.) ;
#879=ORIENTED_EDGE('',*,*,#874,.F.) ;
#900=ORIENTED_EDGE('',*,*,#893,.T.) ;
#901=ORIENTED_EDGE('',*,*,#429,.T.) ;
#902=ORIENTED_EDGE('',*,*,#862,.F.) ;
#903=ORIENTED_EDGE('',*,*,#898,.F.) ;
#924=ORIENTED_EDGE('',*,*,#917,.T.) ;
#925=ORIENTED_EDGE('',*,*,#453,.T.) ;
#926=ORIENTED_EDGE('',*,*,#893,.F.) ;
#927=ORIENTED_EDGE('',*,*,#922,.F.) ;
#948=ORIENTED_EDGE('',*,*,#941,.T.) ;
#949=ORIENTED_EDGE('',*,*,#477,.T.) ;
#950=ORIENTED_EDGE('',*,*,#917,.F.) ;
#951=ORIENTED_EDGE('',*,*,#946,.F.) ;
#972=ORIENTED_EDGE('',*,*,#965,.T.) ;
#973=ORIENTED_EDGE('',*,*,#501,.T.) ;
#974=ORIENTED_EDGE('',*,*,#941,.F.) ;
#975=ORIENTED_EDGE('',*,*,#970,.F.) ;
#996=ORIENTED_EDGE('',*,*,#989,.T.) ;
#997=ORIENTED_EDGE('',*,*,#525,.T.) ;
#998=ORIENTED_EDGE('',*,*,#965,.F.) ;
#999=ORIENTED_EDGE('',*,*,#994,.F.) ;
#1020=ORIENTED_EDGE('',*,*,#1013,.T.) ;
#1021=ORIENTED_EDGE('',*,*,#549,.T.) ;
#1022=ORIENTED_EDGE('',*,*,#989,.F.) ;
#1023=ORIENTED_EDGE('',*,*,#1018,.F.) ;
#1037=ORIENTED_EDGE('',*,*,#869,.T.) ;
#1038=ORIENTED_EDGE('',*,*,#566,.T.) ;
#1039=ORIENTED_EDGE('',*,*,#1013,.F.) ;
#1040=ORIENTED_EDGE('',*,*,#1035,.F.) ;
#1068=ORIENTED_EDGE('',*,*,#1054,.F.) ;
#1069=ORIENTED_EDGE('',*,*,#1061,.F.) ;
#1070=ORIENTED_EDGE('',*,*,#1066,.F.) ;
#1071=ORIENTED_EDGE('',*,*,#587,.T.) ;
#1099=ORIENTED_EDGE('',*,*,#594,.T.) ;
#1100=ORIENTED_EDGE('',*,*,#1085,.T.) ;
#1101=ORIENTED_EDGE('',*,*,#1092,.F.) ;
#1102=ORIENTED_EDGE('',*,*,#1097,.F.) ;
#1116=ORIENTED_EDGE('',*,*,#716,.F.) ;
#1117=ORIENTED_EDGE('',*,*,#601,.F.) ;
#1118=ORIENTED_EDGE('',*,*,#1114,.F.) ;
#1119=ORIENTED_EDGE('',*,*,#735,.T.) ;
#1133=ORIENTED_EDGE('',*,*,#624,.T.) ;
#1134=ORIENTED_EDGE('',*,*,#699,.T.) ;
#1135=ORIENTED_EDGE('',*,*,#1131,.T.) ;
#1136=ORIENTED_EDGE('',*,*,#1054,.T.) ;
#1150=ORIENTED_EDGE('',*,*,#843,.T.) ;
#1151=ORIENTED_EDGE('',*,*,#1148,.T.) ;
#1152=ORIENTED_EDGE('',*,*,#1131,.F.) ;
#1153=ORIENTED_EDGE('',*,*,#679,.F.) ;
#1181=ORIENTED_EDGE('',*,*,#742,.T.) ;
#1182=ORIENTED_EDGE('',*,*,#1167,.T.) ;
#1183=ORIENTED_EDGE('',*,*,#1174,.F.) ;
#1184=ORIENTED_EDGE('',*,*,#1179,.F.) ;
#1198=ORIENTED_EDGE('',*,*,#764,.T.) ;
#1199=ORIENTED_EDGE('',*,*,#1179,.T.) ;
#1200=ORIENTED_EDGE('',*,*,#1196,.F.) ;
#1201=ORIENTED_EDGE('',*,*,#783,.F.) ;
#1234=ORIENTED_EDGE('',*,*,#1174,.T.) ;
#1235=ORIENTED_EDGE('',*,*,#1213,.T.) ;
#1236=ORIENTED_EDGE('',*,*,#1092,.T.) ;
#1237=ORIENTED_EDGE('',*,*,#1220,.T.) ;
#1238=ORIENTED_EDGE('',*,*,#1227,.T.) ;
#1239=ORIENTED_EDGE('',*,*,#1232,.T.) ;
#1240=ORIENTED_EDGE('',*,*,#790,.T.) ;
#1241=ORIENTED_EDGE('',*,*,#1196,.T.) ;
#1255=ORIENTED_EDGE('',*,*,#821,.T.) ;
#1256=ORIENTED_EDGE('',*,*,#795,.T.) ;
#1257=ORIENTED_EDGE('',*,*,#1232,.F.) ;
#1258=ORIENTED_EDGE('',*,*,#1253,.F.) ;
#1272=ORIENTED_EDGE('',*,*,#1148,.F.) ;
#1273=ORIENTED_EDGE('',*,*,#826,.F.) ;
#1274=ORIENTED_EDGE('',*,*,#1270,.F.) ;
#1275=ORIENTED_EDGE('',*,*,#1061,.T.) ;
#1284=ORIENTED_EDGE('',*,*,#970,.T.) ;
#1285=ORIENTED_EDGE('',*,*,#946,.T.) ;
#1286=ORIENTED_EDGE('',*,*,#922,.T.) ;
#1287=ORIENTED_EDGE('',*,*,#898,.T.) ;
#1288=ORIENTED_EDGE('',*,*,#874,.T.) ;
#1289=ORIENTED_EDGE('',*,*,#1035,.T.) ;
#1290=ORIENTED_EDGE('',*,*,#1018,.T.) ;
#1291=ORIENTED_EDGE('',*,*,#994,.T.) ;
#1305=ORIENTED_EDGE('',*,*,#1066,.T.) ;
#1306=ORIENTED_EDGE('',*,*,#1303,.T.) ;
#1307=ORIENTED_EDGE('',*,*,#1220,.F.) ;
#1308=ORIENTED_EDGE('',*,*,#1085,.F.) ;
#1317=ORIENTED_EDGE('',*,*,#1114,.T.) ;
#1318=ORIENTED_EDGE('',*,*,#1097,.T.) ;
#1319=ORIENTED_EDGE('',*,*,#1213,.F.) ;
#1320=ORIENTED_EDGE('',*,*,#1167,.F.) ;
#1329=ORIENTED_EDGE('',*,*,#1270,.T.) ;
#1330=ORIENTED_EDGE('',*,*,#1253,.T.) ;
#1331=ORIENTED_EDGE('',*,*,#1227,.F.) ;
#1332=ORIENTED_EDGE('',*,*,#1303,.F.) ;
#64=EDGE_LOOP('',(#65,#66,#67,#68)) ;
#98=EDGE_LOOP('',(#99,#100,#101,#102)) ;
#184=EDGE_LOOP('',(#185,#186,#187,#188,#189,#190,#191,#192)) ;
#234=EDGE_LOOP('',(#235,#236,#237,#238,#239,#240,#241,#242)) ;
#265=EDGE_LOOP('',(#266,#267,#268,#269)) ;
#296=EDGE_LOOP('',(#297,#298,#299,#300)) ;
#354=EDGE_LOOP('',(#355,#356,#357,#358,#359,#360,#361,#362)) ;
#375=EDGE_LOOP('',(#376,#377,#378,#379)) ;
#406=EDGE_LOOP('',(#407,#408,#409,#410)) ;
#430=EDGE_LOOP('',(#431,#432,#433,#434)) ;
#454=EDGE_LOOP('',(#455,#456,#457,#458)) ;
#478=EDGE_LOOP('',(#479,#480,#481,#482)) ;
#502=EDGE_LOOP('',(#503,#504,#505,#506)) ;
#526=EDGE_LOOP('',(#527,#528,#529,#530)) ;
#550=EDGE_LOOP('',(#551,#552,#553,#554)) ;
#567=EDGE_LOOP('',(#568,#569,#570,#571)) ;
#625=EDGE_LOOP('',(#626,#627,#628,#629,#630,#631,#632,#633)) ;
#656=EDGE_LOOP('',(#657,#658,#659,#660)) ;
#680=EDGE_LOOP('',(#681,#682,#683,#684)) ;
#700=EDGE_LOOP('',(#701,#702,#703,#704)) ;
#717=EDGE_LOOP('',(#718,#719,#720,#721)) ;
#748=EDGE_LOOP('',(#749,#750,#751,#752)) ;
#765=EDGE_LOOP('',(#766,#767,#768,#769)) ;
#796=EDGE_LOOP('',(#797,#798,#799,#800)) ;
#827=EDGE_LOOP('',(#828,#829,#830,#831)) ;
#844=EDGE_LOOP('',(#845,#846,#847,#848)) ;
#875=EDGE_LOOP('',(#876,#877,#878,#879)) ;
#899=EDGE_LOOP('',(#900,#901,#902,#903)) ;
#923=EDGE_LOOP('',(#924,#925,#926,#927)) ;
#947=EDGE_LOOP('',(#948,#949,#950,#951)) ;
#971=EDGE_LOOP('',(#972,#973,#974,#975)) ;
#995=EDGE_LOOP('',(#996,#997,#998,#999)) ;
#1019=EDGE_LOOP('',(#1020,#1021,#1022,#1023)) ;
#1036=EDGE_LOOP('',(#1037,#1038,#1039,#1040)) ;
#1067=EDGE_LOOP('',(#1068,#1069,#1070,#1071)) ;
#1098=EDGE_LOOP('',(#1099,#1100,#1101,#1102)) ;
#1115=EDGE_LOOP('',(#1116,#1117,#1118,#1119)) ;
#1132=EDGE_LOOP('',(#1133,#1134,#1135,#1136)) ;
#1149=EDGE_LOOP('',(#1150,#1151,#1152,#1153)) ;
#1180=EDGE_LOOP('',(#1181,#1182,#1183,#1184)) ;
#1197=EDGE_LOOP('',(#1198,#1199,#1200,#1201)) ;
#1233=EDGE_LOOP('',(#1234,#1235,#1236,#1237,#1238,#1239,#1240,#1241)) ;
#1254=EDGE_LOOP('',(#1255,#1256,#1257,#1258)) ;
#1271=EDGE_LOOP('',(#1272,#1273,#1274,#1275)) ;
#1283=EDGE_LOOP('',(#1284,#1285,#1286,#1287,#1288,#1289,#1290,#1291)) ;
#1304=EDGE_LOOP('',(#1305,#1306,#1307,#1308)) ;
#1316=EDGE_LOOP('',(#1317,#1318,#1319,#1320)) ;
#1328=EDGE_LOOP('',(#1329,#1330,#1331,#1332)) ;
#1335=ADVANCED_BREP_SHAPE_REPRESENTATION('NONE',(#21),#16) ;
#70=ADVANCED_FACE('PartBody',(#69),#35,.F.) ;
#104=ADVANCED_FACE('PartBody',(#103),#75,.F.) ;
#244=ADVANCED_FACE('PartBody',(#193,#243),#109,.T.) ;
#271=ADVANCED_FACE('PartBody',(#270),#249,.F.) ;
#302=ADVANCED_FACE('PartBody',(#301),#276,.T.) ;
#364=ADVANCED_FACE('PartBody',(#363),#307,.F.) ;
#381=ADVANCED_FACE('PartBody',(#380),#369,.F.) ;
#412=ADVANCED_FACE('PartBody',(#411),#386,.T.) ;
#436=ADVANCED_FACE('PartBody',(#435),#417,.T.) ;
#460=ADVANCED_FACE('PartBody',(#459),#441,.T.) ;
#484=ADVANCED_FACE('PartBody',(#483),#465,.T.) ;
#508=ADVANCED_FACE('PartBody',(#507),#489,.T.) ;
#532=ADVANCED_FACE('PartBody',(#531),#513,.T.) ;
#556=ADVANCED_FACE('PartBody',(#555),#537,.T.) ;
#573=ADVANCED_FACE('PartBody',(#572),#561,.T.) ;
#635=ADVANCED_FACE('PartBody',(#634),#578,.F.) ;
#662=ADVANCED_FACE('PartBody',(#661),#640,.F.) ;
#686=ADVANCED_FACE('PartBody',(#685),#667,.F.) ;
#706=ADVANCED_FACE('PartBody',(#705),#691,.F.) ;
#723=ADVANCED_FACE('PartBody',(#722),#711,.F.) ;
#754=ADVANCED_FACE('PartBody',(#753),#728,.F.) ;
#771=ADVANCED_FACE('PartBody',(#770),#759,.F.) ;
#802=ADVANCED_FACE('PartBody',(#801),#776,.F.) ;
#833=ADVANCED_FACE('PartBody',(#832),#807,.F.) ;
#850=ADVANCED_FACE('PartBody',(#849),#838,.F.) ;
#881=ADVANCED_FACE('PartBody',(#880),#855,.T.) ;
#905=ADVANCED_FACE('PartBody',(#904),#886,.T.) ;
#929=ADVANCED_FACE('PartBody',(#928),#910,.T.) ;
#953=ADVANCED_FACE('PartBody',(#952),#934,.T.) ;
#977=ADVANCED_FACE('PartBody',(#976),#958,.T.) ;
#1001=ADVANCED_FACE('PartBody',(#1000),#982,.T.) ;
#1025=ADVANCED_FACE('PartBody',(#1024),#1006,.T.) ;
#1042=ADVANCED_FACE('PartBody',(#1041),#1030,.T.) ;
#1073=ADVANCED_FACE('PartBody',(#1072),#1047,.F.) ;
#1104=ADVANCED_FACE('PartBody',(#1103),#1078,.F.) ;
#1121=ADVANCED_FACE('PartBody',(#1120),#1109,.F.) ;
#1138=ADVANCED_FACE('PartBody',(#1137),#1126,.F.) ;
#1155=ADVANCED_FACE('PartBody',(#1154),#1143,.T.) ;
#1186=ADVANCED_FACE('PartBody',(#1185),#1160,.F.) ;
#1203=ADVANCED_FACE('PartBody',(#1202),#1191,.F.) ;
#1243=ADVANCED_FACE('PartBody',(#1242),#1208,.F.) ;
#1260=ADVANCED_FACE('PartBody',(#1259),#1248,.F.) ;
#1277=ADVANCED_FACE('PartBody',(#1276),#1265,.F.) ;
#1293=ADVANCED_FACE('PartBody',(#1292),#1282,.F.) ;
#1310=ADVANCED_FACE('PartBody',(#1309),#1298,.F.) ;
#1322=ADVANCED_FACE('PartBody',(#1321),#1315,.F.) ;
#1334=ADVANCED_FACE('PartBody',(#1333),#1327,.F.) ;
#4=APPLICATION_PROTOCOL_DEFINITION('international standard','ap242_managed_model_based_3d_engineering',2014,#1) ;
#90=B_SPLINE_CURVE_WITH_KNOTS('',5,(#91,#92,#93,#94,#95,#96),.UNSPECIFIED.,.F.,.U.,(6,6),(0.,6.85814837888),.UNIFORM_KNOTS.) ;
#119=B_SPLINE_CURVE_WITH_KNOTS('',5,(#120,#121,#122,#123,#124,#125,#126,#127,#128,#129,#130,#131),.UNSPECIFIED.,.F.,.U.,(6,3,3,6),(0.,2.40684284017,4.81368565856,6.68369696153),.UNIFORM_KNOTS.) ;
#142=B_SPLINE_CURVE_WITH_KNOTS('',5,(#143,#144,#145,#146,#147,#148,#149,#150,#151,#152,#153,#154),.UNSPECIFIED.,.F.,.U.,(6,3,3,6),(0.,2.4068428549,4.81368563353,6.68369692322),.UNIFORM_KNOTS.) ;
#257=B_SPLINE_CURVE_WITH_KNOTS('',5,(#258,#259,#260,#261,#262,#263),.UNSPECIFIED.,.F.,.U.,(6,6),(0.,6.85814833755),.UNIFORM_KNOTS.) ;
#315=B_SPLINE_CURVE_WITH_KNOTS('',5,(#316,#317,#318,#319,#320,#321),.UNSPECIFIED.,.F.,.U.,(6,6),(0.,0.14160637393),.UNIFORM_KNOTS.) ;
#346=B_SPLINE_CURVE_WITH_KNOTS('',5,(#347,#348,#349,#350,#351,#352),.UNSPECIFIED.,.F.,.U.,(6,6),(0.,0.141606369858),.UNIFORM_KNOTS.) ;
#602=B_SPLINE_CURVE_WITH_KNOTS('',5,(#603,#604,#605,#606,#607,#608),.UNSPECIFIED.,.F.,.U.,(6,6),(0.,0.141606376517),.UNIFORM_KNOTS.) ;
#617=B_SPLINE_CURVE_WITH_KNOTS('',5,(#618,#619,#620,#621,#622,#623),.UNSPECIFIED.,.F.,.U.,(6,6),(0.,0.141606367271),.UNIFORM_KNOTS.) ;
#648=B_SPLINE_CURVE_WITH_KNOTS('',5,(#649,#650,#651,#652,#653,#654),.UNSPECIFIED.,.F.,.U.,(6,6),(0.,6.85814832601),.UNIFORM_KNOTS.) ;
#692=B_SPLINE_CURVE_WITH_KNOTS('',5,(#693,#694,#695,#696,#697,#698),.UNSPECIFIED.,.F.,.U.,(6,6),(0.,6.85814842309),.UNIFORM_KNOTS.) ;
#22=COLOUR_RGB('Colour',0.823529411765,0.823529411765,1.) ;
#1387=CONSTRUCTIVE_GEOMETRY_REPRESENTATION_RELATIONSHIP('supplemental geometry','',#19,#1386) ;
#1371=DRAUGHTING_PRE_DEFINED_COLOUR('white') ;
#1370=DRAUGHTING_PRE_DEFINED_CURVE_FONT('continuous') ;
#1382=DRAUGHTING_PRE_DEFINED_CURVE_FONT('dashed') ;
#69=FACE_OUTER_BOUND('',#64,.T.) ;
#103=FACE_OUTER_BOUND('',#98,.T.) ;
#193=FACE_OUTER_BOUND('',#184,.T.) ;
#270=FACE_OUTER_BOUND('',#265,.T.) ;
#301=FACE_OUTER_BOUND('',#296,.T.) ;
#363=FACE_OUTER_BOUND('',#354,.T.) ;
#380=FACE_OUTER_BOUND('',#375,.T.) ;
#411=FACE_OUTER_BOUND('',#406,.T.) ;
#435=FACE_OUTER_BOUND('',#430,.T.) ;
#459=FACE_OUTER_BOUND('',#454,.T.) ;
#483=FACE_OUTER_BOUND('',#478,.T.) ;
#507=FACE_OUTER_BOUND('',#502,.T.) ;
#531=FACE_OUTER_BOUND('',#526,.T.) ;
#555=FACE_OUTER_BOUND('',#550,.T.) ;
#572=FACE_OUTER_BOUND('',#567,.T.) ;
#634=FACE_OUTER_BOUND('',#625,.T.) ;
#661=FACE_OUTER_BOUND('',#656,.T.) ;
#685=FACE_OUTER_BOUND('',#680,.T.) ;
#705=FACE_OUTER_BOUND('',#700,.T.) ;
#722=FACE_OUTER_BOUND('',#717,.T.) ;
#753=FACE_OUTER_BOUND('',#748,.T.) ;
#770=FACE_OUTER_BOUND('',#765,.T.) ;
#801=FACE_OUTER_BOUND('',#796,.T.) ;
#832=FACE_OUTER_BOUND('',#827,.T.) ;
#849=FACE_OUTER_BOUND('',#844,.T.) ;
#880=FACE_OUTER_BOUND('',#875,.T.) ;
#904=FACE_OUTER_BOUND('',#899,.T.) ;
#928=FACE_OUTER_BOUND('',#923,.T.) ;
#952=FACE_OUTER_BOUND('',#947,.T.) ;
#976=FACE_OUTER_BOUND('',#971,.T.) ;
#1000=FACE_OUTER_BOUND('',#995,.T.) ;
#1024=FACE_OUTER_BOUND('',#1019,.T.) ;
#1041=FACE_OUTER_BOUND('',#1036,.T.) ;
#1072=FACE_OUTER_BOUND('',#1067,.T.) ;
#1103=FACE_OUTER_BOUND('',#1098,.T.) ;
#1120=FACE_OUTER_BOUND('',#1115,.T.) ;
#1137=FACE_OUTER_BOUND('',#1132,.T.) ;
#1154=FACE_OUTER_BOUND('',#1149,.T.) ;
#1185=FACE_OUTER_BOUND('',#1180,.T.) ;
#1202=FACE_OUTER_BOUND('',#1197,.T.) ;
#1242=FACE_OUTER_BOUND('',#1233,.T.) ;
#1259=FACE_OUTER_BOUND('',#1254,.T.) ;
#1276=FACE_OUTER_BOUND('',#1271,.T.) ;
#1292=FACE_OUTER_BOUND('',#1283,.T.) ;
#1309=FACE_OUTER_BOUND('',#1304,.T.) ;
#1321=FACE_OUTER_BOUND('',#1316,.T.) ;
#1333=FACE_OUTER_BOUND('',#1328,.T.) ;
#1375=GEOMETRICALLY_BOUNDED_SURFACE_SHAPE_REPRESENTATION('NONE',(#1376),#16) ;
#9=PRODUCT_CATEGORY_RELATIONSHIP(' ',' ',#7,#8) ;
#6=PRODUCT_DEFINITION_FORMATION_WITH_SPECIFIED_SOURCE('',' ',#5,.NOT_KNOWN.) ;
#20=SHAPE_DEFINITION_REPRESENTATION(#11,#19) ;
#12=(LENGTH_UNIT()NAMED_UNIT(*)SI_UNIT(.MILLI.,.METRE.)) ;
#13=(NAMED_UNIT(*)PLANE_ANGLE_UNIT()SI_UNIT($,.RADIAN.)) ;
#14=(NAMED_UNIT(*)SI_UNIT($,.STERADIAN.)SOLID_ANGLE_UNIT()) ;
#16=(GEOMETRIC_REPRESENTATION_CONTEXT(3)GLOBAL_UNCERTAINTY_ASSIGNED_CONTEXT((#15))GLOBAL_UNIT_ASSIGNED_CONTEXT((#12,#13,#14))REPRESENTATION_CONTEXT(' ',' ')) ;
ENDSEC;
END-ISO-10303-21;
